<svg width="509" height="466" viewBox="0 0 509 466" fill="none" xmlns="http://www.w3.org/2000/svg">
<path fill-rule="evenodd" clip-rule="evenodd" d="M390.875 25.8347C393.381 20.4939 397.156 19.3771 398.035 12.0794C390.116 12.9296 375.114 17.6328 367.54 20.4163C358.248 23.8306 353.915 33.6419 345.618 37.8829C347.873 35.0927 352.226 28.0143 352.847 23.8104C343.386 25.1262 312.725 37.8188 304.562 42.4815C291.406 49.9951 281.341 66.814 272.183 78.4539C274.266 71.0617 282.709 57.0094 280.953 48.8244C276.264 48.0956 258.228 57.917 253.63 60.5689C247.164 64.3038 246.794 64.3611 243.357 71.2405C240.571 76.8209 238.987 80.4546 235.786 84.6956C236.895 78.5146 240.404 74.9214 240.41 67.7654C234.283 70.5758 199.798 97.1958 194.756 101.352C185.826 108.714 185.096 114.922 179.76 126.765C177.338 132.136 175.559 135.867 173.627 141.461C171.947 146.323 170.246 152.818 167.859 156.468C170.024 142.757 179.41 124.217 181.449 111.309C177.277 113.127 164.88 123.202 160.697 126.518C150.672 134.457 140.39 141.731 130.975 150.473C118.182 162.352 122.223 182.356 119.676 192.299C118.485 196.945 121.175 188.298 119.253 193.561L118.669 194.802C117.668 184.003 117.388 171.981 112.583 165.105C103.276 166.377 85.6861 187.937 80.8138 193.547C78.3718 196.361 76.4229 199.114 73.9663 201.948C70.2522 206.233 70.8095 206.54 70.3456 213.942C69.6804 224.617 70.1705 235.967 69.2457 246.47C66.4215 238.558 66.4857 220.177 63.501 214.884C56.2188 224.641 53.6075 267.23 53.9985 282.422C54.2027 290.31 60.2508 324.947 59.5127 328.898L40.461 366.179C38.8534 368.854 39.1744 367.35 37.5609 369.819C35.93 372.316 35.0139 375.13 33.24 378.065L28.534 377.063C24.3327 385.748 25.0038 382.087 28.4115 386.594C22.7864 396.24 13.1789 406.733 6.82151 415.917C0.230734 425.435 6.51225 425.195 5.57279 437.054C5.0097 444.146 -0.0405995 455.135 0.000246399 457.672C3.41963 458.897 5.21685 452.213 7.60341 447.938C10.0104 443.623 19.8076 427.047 20.8171 423.454C21.9841 419.294 19.2387 419.712 21.2985 415.623C23.7054 410.843 31.6237 413.471 28.464 419.871C26.9206 422.995 25.2342 421.528 22.8973 423.508C20.0497 425.924 3.59177 459.68 3.65303 459.798C4.49038 461.387 50.0685 461.34 51.396 461.383C67.6848 461.896 84.134 462.267 100.51 462.473C163.897 463.269 231.135 469.332 294.131 462.561C320.903 459.683 357.758 455.681 366.303 431.197C386.248 374.067 271.99 365.619 232.918 394.327C218.564 404.874 220.778 418.032 237.344 425.023C276.801 441.666 355.266 421.052 324.296 407.789C320.258 406.062 308.824 402.88 304.328 403.359C309.326 404.334 325.749 409.523 327.756 414.591C323.914 421.423 301.694 423.613 292.865 424.706C275.123 426.902 251.345 427.604 235.214 417.408C213.98 403.99 253.11 390.562 263.415 388.329C287.888 383.025 319.5 384.627 340.955 394.617C350.332 398.983 362.554 407.259 361.031 421.322C359.508 435.364 349.294 441.059 337.953 445.057C295.596 460 221.169 456.316 173.782 455.752C124.612 455.165 74.8416 450.641 25.8469 456.316C19.5537 457.045 12.0119 459.16 6.56476 459.396C20.5574 438.232 30.515 442.786 33.8381 437.074C35.965 433.424 46.8475 403.433 47.9854 398.811L52.6447 399.759C55.4777 395.741 57.3128 393.599 52.7906 390.596C53.8351 387.775 56.175 385.107 57.3274 382.455C57.5433 381.955 57.7184 381.52 57.7651 380.973C58.0481 377.61 56.0087 380.994 57.7242 376.874C60.8198 369.455 71.5301 352.245 75.3901 345.909C78.9349 340.092 77.5082 339.876 85.0589 339.309C90.0975 338.931 95.1886 338.446 100.417 337.98C109.838 337.14 120.213 336.178 129.911 334.92L106.328 324.886C131.183 322.902 141.733 337.42 169.33 311.478C174.348 306.758 182.966 294.74 188.265 288.259C192.451 283.134 204.618 269.028 206.672 264.638L155.848 269.723C159.343 267.759 197.012 260.566 204.431 258.842C213.919 256.639 218.727 252.84 223.313 247.141C225.192 244.807 235.713 231.267 235.996 229.203C224.463 227.509 207.634 229.503 197.508 226.807C206.357 225.016 239.433 224.857 244.171 221.49C245.863 220.289 249.942 216.257 251.182 214.816C257.831 207.09 265.694 201.422 272.206 193.746C269.501 190.69 261.583 188.294 258.108 186.307C288.296 182.616 274.724 192.542 303.818 165.257C306.586 162.659 313.647 155.719 314.502 152.531C309.81 149.744 290.093 148.111 283.649 147.534C292.285 145.975 307.188 147.19 317.008 146.394C327.26 145.564 332.594 139.221 340.719 133.269C347.788 128.09 354.525 122.736 361.367 117.493L377.396 105.712C379.753 104.278 381.276 103.836 382.245 101.42L359.864 101.143C360.025 101.018 360.287 100.691 360.378 100.87C360.468 101.049 360.768 100.674 360.894 100.63C366.782 98.5251 379.598 98.4442 386.215 97.324C400.809 94.8577 413.716 81.5106 425.5 72.6778C429.139 69.9517 441.43 60.9097 443.187 57.2524L403.54 61.301C417.687 57.1883 433.815 57.971 447.534 52.3265C454.058 49.6442 459.843 44.4485 464.858 40.4335C469.223 36.9416 478.848 31.0642 481.098 27.3395L459.939 30.602C460.088 30.3793 460.333 30.0116 460.424 30.1837L465.284 28.4596C481.509 24.5189 483.577 25.9967 499.382 13.4829C502.647 10.8951 516.438 1.094 503.691 0.473207C478.361 -0.761636 453.372 2.48742 428.293 6.00976C418.635 7.36606 415.803 9.64681 408.838 14.5524C404.666 17.4945 395.698 24.0027 390.884 25.8415L390.875 25.8347Z" fill="#353535" fill-opacity="0.18"/>
<path fill-rule="evenodd" clip-rule="evenodd" d="M44.9016 371.601L49.8148 374.621L65.8906 345.035C71.5915 334.789 77.2282 325.5 83.1538 316C98.7335 291.019 105.345 283.725 121.248 262.105L141.806 236.882C155.177 221.558 170.602 202.31 184.204 187.93C199.649 171.604 237.008 136.188 254.243 122.713C270.87 109.71 287.64 97.5066 307.491 86.3087C346.968 64.0377 357.615 59.1691 396.477 42.2491L427.053 29.2731C416.535 30.2448 375.523 47.897 363.488 53.0928C297.752 81.4638 255.351 113.084 203.197 162.44C199.244 166.179 195.713 169.674 191.74 173.301C177.289 186.49 160.72 205.248 147.985 220.684L116.971 258.681C106.325 271.326 87.4951 297.251 78.3602 312.042C72.5192 321.499 66.9029 331.088 61.1291 341.084C55.9183 350.106 49.0971 361.463 44.9016 371.608V371.601Z" fill="white"/>
<path fill-rule="evenodd" clip-rule="evenodd" d="M25.6631 439.264C31.6558 438.62 31.329 437.186 33.2167 431.673C34.5091 427.894 35.8921 423.876 37.2283 419.993C38.7367 415.603 45.1291 399.668 44.0204 396.861C41.31 396.561 41.9752 396.413 40.4843 400.431L34.2553 416.511C31.8629 422.655 26.9351 433.077 25.666 439.264H25.6631Z" fill="white"/>
</svg>
