<svg width="341" height="89" viewBox="0 0 341 89" fill="none" xmlns="http://www.w3.org/2000/svg">
<path d="M15.116 3.784C16.236 3.784 17.188 3.94267 17.972 4.26C18.756 4.57733 19.5213 5.02533 20.268 5.604C20.4733 5.772 20.6507 5.856 20.8 5.856C21.1733 5.856 21.416 5.296 21.528 4.176H22.172C22.0973 5.44533 22.06 7.704 22.06 10.952H21.416C21.248 9.57067 21.024 8.516 20.744 7.788C20.464 7.06 19.988 6.42533 19.316 5.884C18.8493 5.436 18.308 5.1 17.692 4.876C17.076 4.63333 16.432 4.512 15.76 4.512C13.8747 4.512 12.4747 5.436 11.56 7.284C10.6453 9.11333 10.188 11.4 10.188 14.144C10.188 16.8693 10.664 19.1467 11.616 20.976C12.568 22.8053 13.9867 23.72 15.872 23.72C16.5067 23.72 17.132 23.608 17.748 23.384C18.3827 23.1413 18.9147 22.796 19.344 22.348C20.0347 21.8253 20.5107 21.172 20.772 20.388C21.052 19.604 21.2667 18.456 21.416 16.944H22.06C22.06 20.3227 22.0973 22.6747 22.172 24H21.528C21.472 23.4027 21.388 22.9827 21.276 22.74C21.1827 22.4787 21.0427 22.348 20.856 22.348C20.7067 22.348 20.5107 22.4227 20.268 22.572C19.428 23.1693 18.6253 23.6267 17.86 23.944C17.0947 24.2427 16.1707 24.392 15.088 24.392C13.1093 24.392 11.3733 23.9907 9.88 23.188C8.40533 22.3853 7.25733 21.228 6.436 19.716C5.61467 18.1853 5.204 16.3653 5.204 14.256C5.204 12.2027 5.624 10.3827 6.464 8.796C7.304 7.20933 8.47067 5.97733 9.964 5.1C11.476 4.22267 13.1933 3.784 15.116 3.784ZM29.6102 24.196C28.4155 24.196 27.5195 23.888 26.9222 23.272C26.3435 22.656 26.0542 21.844 26.0542 20.836C26.0542 19.996 26.2689 19.3053 26.6982 18.764C27.1462 18.204 27.6782 17.7747 28.2942 17.476C28.9289 17.1773 29.7315 16.86 30.7022 16.524C31.7289 16.1693 32.4755 15.852 32.9422 15.572C33.4275 15.2733 33.6702 14.872 33.6702 14.368V12.184C33.6702 11.4 33.4835 10.7933 33.1102 10.364C32.7555 9.916 32.1955 9.692 31.4302 9.692C30.5342 9.692 29.8529 9.916 29.3862 10.364C29.9089 10.5507 30.3102 10.8307 30.5902 11.204C30.8889 11.5773 31.0382 12.016 31.0382 12.52C31.0382 13.1547 30.8235 13.6587 30.3942 14.032C29.9649 14.4053 29.4422 14.592 28.8262 14.592C28.1729 14.592 27.6689 14.3867 27.3142 13.976C26.9595 13.5653 26.7822 13.052 26.7822 12.436C26.7822 11.9133 26.9035 11.4747 27.1462 11.12C27.4075 10.7467 27.7995 10.4013 28.3222 10.084C28.8262 9.78533 29.4422 9.552 30.1702 9.384C30.9169 9.216 31.7289 9.132 32.6062 9.132C33.5209 9.132 34.3142 9.22533 34.9862 9.412C35.6582 9.59867 36.2182 9.916 36.6662 10.364C37.0769 10.7747 37.3475 11.2787 37.4782 11.876C37.6275 12.4733 37.7022 13.2853 37.7022 14.312V21.928C37.7022 22.376 37.7395 22.6933 37.8142 22.88C37.9075 23.0667 38.0755 23.16 38.3182 23.16C38.5982 23.16 38.9342 23.0013 39.3262 22.684L39.6062 23.16C38.7662 23.8507 37.7395 24.196 36.5262 24.196C35.4995 24.196 34.7809 23.9907 34.3702 23.58C33.9595 23.1693 33.7449 22.6187 33.7262 21.928C32.7929 23.44 31.4209 24.196 29.6102 24.196ZM31.7662 22.404C32.4942 22.404 33.1289 22.0213 33.6702 21.256V15.516C33.4462 15.8893 32.9702 16.3 32.2422 16.748C31.5142 17.2147 30.9635 17.6813 30.5902 18.148C30.2169 18.6147 30.0302 19.2867 30.0302 20.164C30.0302 20.9293 30.1889 21.4987 30.5062 21.872C30.8235 22.2267 31.2435 22.404 31.7662 22.404ZM51.5384 9.132C52.3784 9.132 53.013 9.384 53.4424 9.888C53.8717 10.392 54.0864 10.9987 54.0864 11.708C54.0864 12.3987 53.881 12.968 53.4704 13.416C53.0784 13.8453 52.5557 14.06 51.9024 14.06C51.2677 14.06 50.7637 13.9013 50.3904 13.584C50.017 13.248 49.8304 12.8093 49.8304 12.268C49.8304 11.372 50.241 10.644 51.0624 10.084C50.9877 10.0653 50.8757 10.056 50.7264 10.056C50.5397 10.056 50.3904 10.0747 50.2784 10.112C49.569 10.224 48.9624 10.6533 48.4584 11.4C47.973 12.1467 47.7304 12.912 47.7304 13.696V21.116C47.7304 21.9747 47.9357 22.572 48.3464 22.908C48.7757 23.244 49.4477 23.412 50.3624 23.412V24C50.101 24 49.8864 23.9907 49.7184 23.972C47.8144 23.916 46.545 23.888 45.9104 23.888C45.4064 23.888 44.2584 23.916 42.4664 23.972C42.317 23.9907 42.1304 24 41.9064 24V23.412C42.5784 23.412 43.045 23.272 43.3064 22.992C43.5677 22.6933 43.6984 22.1613 43.6984 21.396V12.576C43.6984 11.7173 43.5677 11.092 43.3064 10.7C43.045 10.308 42.5784 10.112 41.9064 10.112V9.524C42.5037 9.58 43.0824 9.608 43.6424 9.608C45.3037 9.608 46.6664 9.47733 47.7304 9.216V11.82C48.085 11.0173 48.5984 10.3733 49.2704 9.888C49.9424 9.384 50.6984 9.132 51.5384 9.132ZM62.1607 9.524H65.4647V10.084H62.1607V21.396C62.1607 21.956 62.254 22.3573 62.4407 22.6C62.646 22.824 62.9634 22.936 63.3927 22.936C64.1954 22.936 64.83 22.376 65.2967 21.256L65.7727 21.508C65.0634 23.4307 63.7847 24.392 61.9367 24.392C60.7047 24.392 59.7714 24.0747 59.1367 23.44C58.7447 23.048 58.474 22.5627 58.3247 21.984C58.194 21.3867 58.1287 20.5747 58.1287 19.548V10.084H55.7767V9.524H58.1287V5.828C59.678 5.828 61.022 5.52933 62.1607 4.932V9.524ZM74.9351 9.132C77.0817 9.132 78.7617 9.748 79.9751 10.98C81.1884 12.1933 81.7951 14.1253 81.7951 16.776C81.7951 19.4267 81.1884 21.3587 79.9751 22.572C78.7617 23.7853 77.0817 24.392 74.9351 24.392C72.8071 24.392 71.1271 23.7853 69.8951 22.572C68.6817 21.3587 68.0751 19.4267 68.0751 16.776C68.0751 14.1253 68.6817 12.1933 69.8951 10.98C71.1271 9.748 72.8071 9.132 74.9351 9.132ZM74.9351 9.692C74.1324 9.692 73.4884 10.28 73.0031 11.456C72.5364 12.6133 72.3031 14.3867 72.3031 16.776C72.3031 19.1653 72.5364 20.9387 73.0031 22.096C73.4884 23.2533 74.1324 23.832 74.9351 23.832C75.7564 23.832 76.4004 23.2627 76.8671 22.124C77.3337 20.9667 77.5671 19.184 77.5671 16.776C77.5671 14.368 77.3244 12.5853 76.8391 11.428C76.3724 10.2707 75.7377 9.692 74.9351 9.692ZM78.0431 1.124C78.3791 1.36667 78.5471 1.72133 78.5471 2.188C78.5471 2.58 78.4071 2.96267 78.1271 3.336C77.9217 3.57867 77.6604 3.83067 77.3431 4.092C77.0444 4.33467 76.7177 4.58667 76.3631 4.848C75.2431 5.632 74.2537 6.42533 73.3951 7.228L73.0871 6.976C73.5911 6.06133 74.1137 4.91333 74.6551 3.532C74.8977 2.95333 75.0844 2.524 75.2151 2.244C75.3644 1.94533 75.5417 1.67467 75.7471 1.432C76.1017 0.983999 76.5404 0.759999 77.0631 0.759999C77.4551 0.759999 77.7817 0.881332 78.0431 1.124ZM94.6751 9.132C95.5151 9.132 96.1498 9.384 96.5791 9.888C97.0084 10.392 97.2231 10.9987 97.2231 11.708C97.2231 12.3987 97.0178 12.968 96.6071 13.416C96.2151 13.8453 95.6924 14.06 95.0391 14.06C94.4044 14.06 93.9004 13.9013 93.5271 13.584C93.1538 13.248 92.9671 12.8093 92.9671 12.268C92.9671 11.372 93.3778 10.644 94.1991 10.084C94.1244 10.0653 94.0124 10.056 93.8631 10.056C93.6764 10.056 93.5271 10.0747 93.4151 10.112C92.7058 10.224 92.0991 10.6533 91.5951 11.4C91.1098 12.1467 90.8671 12.912 90.8671 13.696V21.116C90.8671 21.9747 91.0724 22.572 91.4831 22.908C91.9124 23.244 92.5844 23.412 93.4991 23.412V24C93.2378 24 93.0231 23.9907 92.8551 23.972C90.9511 23.916 89.6818 23.888 89.0471 23.888C88.5431 23.888 87.3951 23.916 85.6031 23.972C85.4538 23.9907 85.2671 24 85.0431 24V23.412C85.7151 23.412 86.1818 23.272 86.4431 22.992C86.7044 22.6933 86.8351 22.1613 86.8351 21.396V12.576C86.8351 11.7173 86.7044 11.092 86.4431 10.7C86.1818 10.308 85.7151 10.112 85.0431 10.112V9.524C85.6404 9.58 86.2191 9.608 86.7791 9.608C88.4404 9.608 89.8031 9.47733 90.8671 9.216V11.82C91.2218 11.0173 91.7351 10.3733 92.4071 9.888C93.0791 9.384 93.8351 9.132 94.6751 9.132ZM103.253 2.3C104.037 2.3 104.653 2.496 105.101 2.888C105.568 3.26133 105.801 3.784 105.801 4.456C105.801 5.128 105.568 5.66 105.101 6.052C104.653 6.42533 104.037 6.612 103.253 6.612C102.469 6.612 101.844 6.42533 101.377 6.052C100.929 5.66 100.705 5.128 100.705 4.456C100.705 3.784 100.929 3.26133 101.377 2.888C101.844 2.496 102.469 2.3 103.253 2.3ZM105.437 21.396C105.437 22.1613 105.568 22.6933 105.829 22.992C106.109 23.272 106.576 23.412 107.229 23.412V24C105.363 23.9253 104.121 23.888 103.505 23.888C102.927 23.888 101.629 23.9253 99.6134 24V23.412C100.285 23.412 100.752 23.272 101.013 22.992C101.275 22.6933 101.405 22.1613 101.405 21.396V12.576C101.405 11.7173 101.275 11.092 101.013 10.7C100.752 10.308 100.285 10.112 99.6134 10.112V9.524C100.211 9.58 100.789 9.608 101.349 9.608C103.011 9.608 104.373 9.47733 105.437 9.216V21.396ZM117.169 9.132C119.316 9.132 120.996 9.748 122.209 10.98C123.423 12.1933 124.029 14.1253 124.029 16.776C124.029 19.4267 123.423 21.3587 122.209 22.572C120.996 23.7853 119.316 24.392 117.169 24.392C115.041 24.392 113.361 23.7853 112.129 22.572C110.916 21.3587 110.309 19.4267 110.309 16.776C110.309 14.1253 110.916 12.1933 112.129 10.98C113.361 9.748 115.041 9.132 117.169 9.132ZM117.169 9.692C116.367 9.692 115.723 10.28 115.237 11.456C114.771 12.6133 114.537 14.3867 114.537 16.776C114.537 19.1653 114.771 20.9387 115.237 22.096C115.723 23.2533 116.367 23.832 117.169 23.832C117.991 23.832 118.635 23.2627 119.101 22.124C119.568 20.9667 119.801 19.184 119.801 16.776C119.801 14.368 119.559 12.5853 119.073 11.428C118.607 10.2707 117.972 9.692 117.169 9.692Z" fill="#353535"/>
<path d="M19.056 44.344C20.976 44.344 22.608 44.616 23.952 45.16C25.296 45.704 26.608 46.472 27.888 47.464C28.24 47.752 28.544 47.896 28.8 47.896C29.44 47.896 29.856 46.936 30.048 45.016H31.152C31.024 47.192 30.96 51.064 30.96 56.632H29.856C29.568 54.264 29.184 52.456 28.704 51.208C28.224 49.96 27.408 48.872 26.256 47.944C25.456 47.176 24.528 46.6 23.472 46.216C22.416 45.8 21.312 45.592 20.16 45.592C16.928 45.592 14.528 47.176 12.96 50.344C11.392 53.48 10.608 57.4 10.608 62.104C10.608 66.776 11.424 70.68 13.056 73.816C14.688 76.952 17.12 78.52 20.352 78.52C21.44 78.52 22.512 78.328 23.568 77.944C24.656 77.528 25.568 76.936 26.304 76.168C27.488 75.272 28.304 74.152 28.752 72.808C29.232 71.464 29.6 69.496 29.856 66.904H30.96C30.96 72.696 31.024 76.728 31.152 79H30.048C29.952 77.976 29.808 77.256 29.616 76.84C29.456 76.392 29.216 76.168 28.896 76.168C28.64 76.168 28.304 76.296 27.888 76.552C26.448 77.576 25.072 78.36 23.76 78.904C22.448 79.416 20.864 79.672 19.008 79.672C15.616 79.672 12.64 78.984 10.08 77.608C7.552 76.232 5.584 74.248 4.176 71.656C2.768 69.032 2.064 65.912 2.064 62.296C2.064 58.776 2.784 55.656 4.224 52.936C5.664 50.216 7.664 48.104 10.224 46.6C12.816 45.096 15.76 44.344 19.056 44.344ZM46.2398 57.976C47.6798 55 50.2878 53.512 54.0638 53.512C56.5598 53.512 58.3198 54.136 59.3438 55.384C59.8878 55.992 60.2718 56.792 60.4958 57.784C60.7518 58.744 60.8798 60.024 60.8798 61.624V74.536C60.8798 75.848 61.1038 76.76 61.5518 77.272C61.9998 77.752 62.7998 77.992 63.9518 77.992V79C60.6238 78.872 58.5118 78.808 57.6158 78.808C56.5278 78.808 54.4478 78.872 51.3758 79V77.992C52.3358 77.992 53.0078 77.752 53.3918 77.272C53.7758 76.76 53.9678 75.848 53.9678 74.536V59.608C53.9678 58.296 53.7438 57.304 53.2958 56.632C52.8798 55.96 52.1118 55.624 50.9918 55.624C49.6478 55.624 48.5118 56.152 47.5838 57.208C46.6878 58.232 46.2398 59.544 46.2398 61.144V74.536C46.2398 75.848 46.4318 76.76 46.8158 77.272C47.1998 77.752 47.8718 77.992 48.8318 77.992V79C45.7598 78.872 43.7758 78.808 42.8798 78.808C41.7918 78.808 39.5838 78.872 36.2558 79V77.992C37.3758 77.992 38.1598 77.752 38.6078 77.272C39.0878 76.76 39.3278 75.848 39.3278 74.536V47.224C39.3278 45.752 39.0878 44.68 38.6078 44.008C38.1598 43.336 37.3758 43 36.2558 43V41.992C37.2798 42.088 38.2718 42.136 39.2318 42.136C42.0158 42.136 44.3518 41.912 46.2398 41.464V57.976ZM73.5349 79.336C71.4869 79.336 69.9509 78.808 68.9269 77.752C67.9349 76.696 67.4389 75.304 67.4389 73.576C67.4389 72.136 67.8069 70.952 68.5429 70.024C69.3109 69.064 70.2229 68.328 71.2789 67.816C72.3669 67.304 73.7429 66.76 75.4069 66.184C77.1669 65.576 78.4469 65.032 79.2469 64.552C80.0789 64.04 80.4949 63.352 80.4949 62.488V58.744C80.4949 57.4 80.1749 56.36 79.5349 55.624C78.9269 54.856 77.9669 54.472 76.6549 54.472C75.1189 54.472 73.9509 54.856 73.1509 55.624C74.0469 55.944 74.7349 56.424 75.2149 57.064C75.7269 57.704 75.9829 58.456 75.9829 59.32C75.9829 60.408 75.6149 61.272 74.8789 61.912C74.1429 62.552 73.2469 62.872 72.1909 62.872C71.0709 62.872 70.2069 62.52 69.5989 61.816C68.9909 61.112 68.6869 60.232 68.6869 59.176C68.6869 58.28 68.8949 57.528 69.3109 56.92C69.7589 56.28 70.4309 55.688 71.3269 55.144C72.1909 54.632 73.2469 54.232 74.4949 53.944C75.7749 53.656 77.1669 53.512 78.6709 53.512C80.2389 53.512 81.5989 53.672 82.7509 53.992C83.9029 54.312 84.8629 54.856 85.6309 55.624C86.3349 56.328 86.7989 57.192 87.0229 58.216C87.2789 59.24 87.4069 60.632 87.4069 62.392V75.448C87.4069 76.216 87.4709 76.76 87.5989 77.08C87.7589 77.4 88.0469 77.56 88.4629 77.56C88.9429 77.56 89.5189 77.288 90.1909 76.744L90.6709 77.56C89.2309 78.744 87.4709 79.336 85.3909 79.336C83.6309 79.336 82.3989 78.984 81.6949 78.28C80.9909 77.576 80.6229 76.632 80.5909 75.448C78.9909 78.04 76.6389 79.336 73.5349 79.336ZM77.2309 76.264C78.4789 76.264 79.5669 75.608 80.4949 74.296V64.456C80.1109 65.096 79.2949 65.8 78.0469 66.568C76.7989 67.368 75.8549 68.168 75.2149 68.968C74.5749 69.768 74.2549 70.92 74.2549 72.424C74.2549 73.736 74.5269 74.712 75.0709 75.352C75.6149 75.96 76.3349 76.264 77.2309 76.264ZM74.9269 41.272C75.8549 41.272 76.6389 41.416 77.2789 41.704C77.9189 41.992 78.6389 42.424 79.4389 43C80.2069 43.512 80.8309 43.88 81.3109 44.104C81.7909 44.328 82.3669 44.44 83.0389 44.44C84.4789 44.44 85.7109 43.592 86.7349 41.896L87.4069 42.232C86.8949 44.504 86.1109 46.184 85.0549 47.272C83.9989 48.36 82.7989 48.904 81.4549 48.904C80.5589 48.904 79.7909 48.76 79.1509 48.472C78.5109 48.184 77.7429 47.752 76.8469 47.176C76.1749 46.664 75.5829 46.296 75.0709 46.072C74.5589 45.816 73.9669 45.688 73.2949 45.688C71.8869 45.688 70.6549 46.552 69.5989 48.28L68.9269 47.944C69.4389 45.672 70.2229 43.992 71.2789 42.904C72.3669 41.816 73.5829 41.272 74.9269 41.272ZM129.627 73.72C129.627 75.192 129.851 76.264 130.299 76.936C130.747 77.608 131.547 77.944 132.699 77.944V78.952C131.707 78.856 130.715 78.808 129.723 78.808C126.875 78.808 124.539 79.032 122.715 79.48V75.352C121.627 78.232 119.547 79.672 116.475 79.672C113.467 79.672 111.067 78.584 109.275 76.408C107.515 74.2 106.651 70.888 106.683 66.472C106.683 63.656 107.131 61.288 108.027 59.368C108.955 57.416 110.219 55.96 111.819 55C113.451 54.008 115.307 53.512 117.387 53.512C119.723 53.512 121.499 54.12 122.715 55.336V47.176C122.715 45.704 122.475 44.632 121.995 43.96C121.547 43.288 120.763 42.952 119.643 42.952V41.944C120.667 42.04 121.659 42.088 122.619 42.088C125.403 42.088 127.739 41.864 129.627 41.416V73.72ZM118.443 77.608C119.499 77.608 120.427 77.224 121.227 76.456C122.059 75.688 122.555 74.648 122.715 73.336V56.536C121.915 55.448 120.747 54.904 119.211 54.904C117.515 54.904 116.203 55.88 115.275 57.832C114.347 59.784 113.899 62.696 113.931 66.568C113.899 70.472 114.267 73.288 115.035 75.016C115.835 76.744 116.971 77.608 118.443 77.608ZM150.311 75.736C152.935 75.736 155.047 74.456 156.647 71.896L157.511 72.184C156.871 74.264 155.719 76.04 154.055 77.512C152.423 78.952 150.375 79.672 147.911 79.672C144.519 79.672 141.815 78.6 139.799 76.456C137.815 74.28 136.823 71.08 136.823 66.856C136.823 62.536 137.895 59.24 140.039 56.968C142.183 54.664 145.031 53.512 148.583 53.512C154.599 53.512 157.607 57.064 157.607 64.168H144.119C144.087 64.648 144.071 65.4 144.071 66.424C144.071 68.536 144.359 70.296 144.935 71.704C145.543 73.112 146.311 74.136 147.239 74.776C148.199 75.416 149.223 75.736 150.311 75.736ZM148.295 54.52C147.143 54.52 146.183 55.24 145.415 56.68C144.679 58.088 144.215 60.28 144.023 63.256H151.559C151.623 60.728 151.367 58.648 150.791 57.016C150.247 55.352 149.415 54.52 148.295 54.52ZM200.891 74.968C201.307 76.024 201.787 76.792 202.331 77.272C202.875 77.752 203.403 78.008 203.915 78.04V79C201.995 78.904 199.563 78.856 196.619 78.856C193.355 78.856 190.923 78.904 189.323 79V78.04C190.539 77.976 191.403 77.832 191.915 77.608C192.427 77.352 192.683 76.92 192.683 76.312C192.683 75.736 192.491 74.968 192.107 74.008L189.227 66.136H178.763L177.515 69.448C176.619 71.752 176.171 73.528 176.171 74.776C176.171 75.96 176.523 76.792 177.227 77.272C177.963 77.72 179.035 77.976 180.443 78.04V79C178.267 78.904 176.283 78.856 174.491 78.856C173.019 78.856 171.803 78.904 170.842 79V78.04C172.411 77.752 173.787 76.072 174.971 73L185.915 44.92C186.267 44.952 186.827 44.968 187.595 44.968C188.363 44.968 188.907 44.952 189.227 44.92L200.891 74.968ZM188.891 65.176L184.139 52.216L179.147 65.176H188.891ZM216.022 74.536C216.022 75.848 216.246 76.76 216.694 77.272C217.142 77.752 217.942 77.992 219.094 77.992V79C215.766 78.872 213.622 78.808 212.662 78.808C211.574 78.808 209.366 78.872 206.038 79V77.992C207.158 77.992 207.942 77.752 208.39 77.272C208.87 76.76 209.11 75.848 209.11 74.536V47.176C209.11 45.704 208.87 44.632 208.39 43.96C207.942 43.288 207.158 42.952 206.038 42.952V41.944C207.062 42.04 208.054 42.088 209.014 42.088C211.798 42.088 214.134 41.864 216.022 41.416V74.536ZM236.28 75.736C238.904 75.736 241.016 74.456 242.616 71.896L243.48 72.184C242.84 74.264 241.688 76.04 240.024 77.512C238.392 78.952 236.344 79.672 233.88 79.672C230.488 79.672 227.784 78.6 225.768 76.456C223.784 74.28 222.792 71.08 222.792 66.856C222.792 62.536 223.864 59.24 226.008 56.968C228.152 54.664 231 53.512 234.552 53.512C240.568 53.512 243.576 57.064 243.576 64.168H230.088C230.056 64.648 230.04 65.4 230.04 66.424C230.04 68.536 230.328 70.296 230.904 71.704C231.512 73.112 232.28 74.136 233.208 74.776C234.168 75.416 235.192 75.736 236.28 75.736ZM234.264 54.52C233.112 54.52 232.152 55.24 231.384 56.68C230.648 58.088 230.184 60.28 229.992 63.256H237.528C237.592 60.728 237.336 58.648 236.76 57.016C236.216 55.352 235.384 54.52 234.264 54.52ZM270.607 58.792C269.967 58.792 269.423 58.584 268.975 58.168C268.527 57.72 268.303 57.096 268.303 56.296C268.303 55.528 268.495 54.744 268.879 53.944C268.111 54.264 267.471 54.632 266.959 55.048C266.479 55.432 266.063 55.928 265.711 56.536C266.703 57.72 267.199 59.256 267.199 61.144C267.199 63.672 266.319 65.576 264.559 66.856C262.831 68.136 260.527 68.776 257.647 68.776H256.783C255.471 69.544 254.815 70.392 254.815 71.32C254.815 72.344 255.455 72.856 256.735 72.856H261.967C264.783 72.856 267.023 73.384 268.687 74.44C270.383 75.464 271.231 77.048 271.231 79.192C271.231 80.824 270.703 82.296 269.647 83.608C268.623 84.952 267.055 86.024 264.943 86.824C262.831 87.624 260.239 88.024 257.167 88.024C254.063 88.024 251.567 87.624 249.679 86.824C247.823 86.056 246.895 84.936 246.895 83.464C246.895 82.472 247.343 81.576 248.239 80.776C249.135 80.008 250.463 79.4 252.223 78.952L252.655 79.72C251.503 80.68 250.927 81.784 250.927 83.032C250.927 84.376 251.535 85.4 252.751 86.104C253.967 86.84 255.647 87.208 257.791 87.208C260.031 87.208 261.839 86.76 263.215 85.864C264.623 84.968 265.327 83.704 265.327 82.072C265.327 81.016 264.927 80.184 264.127 79.576C263.359 78.968 261.999 78.664 260.047 78.664H257.071C255.023 78.664 253.423 78.328 252.271 77.656C251.119 76.952 250.543 75.896 250.543 74.488C250.543 73.304 250.959 72.248 251.791 71.32C252.623 70.392 253.887 69.496 255.583 68.632C253.279 68.344 251.455 67.576 250.111 66.328C248.767 65.08 248.095 63.352 248.095 61.144C248.095 58.616 248.959 56.712 250.687 55.432C252.447 54.152 254.767 53.512 257.647 53.512C260.847 53.512 263.295 54.264 264.991 55.768C265.599 54.904 266.351 54.216 267.247 53.704C268.143 53.192 269.055 52.936 269.983 52.936C270.943 52.936 271.695 53.224 272.239 53.8C272.815 54.344 273.103 55.064 273.103 55.96C273.103 56.856 272.847 57.56 272.335 58.072C271.855 58.552 271.279 58.792 270.607 58.792ZM257.647 67.912C258.543 67.912 259.215 67.4 259.663 66.376C260.143 65.352 260.383 63.608 260.383 61.144C260.383 58.68 260.143 56.936 259.663 55.912C259.215 54.888 258.543 54.376 257.647 54.376C256.751 54.376 256.063 54.888 255.583 55.912C255.135 56.936 254.911 58.68 254.911 61.144C254.911 63.608 255.135 65.352 255.583 66.376C256.063 67.4 256.751 67.912 257.647 67.912ZM292.398 53.512C293.838 53.512 294.926 53.944 295.662 54.808C296.398 55.672 296.766 56.712 296.766 57.928C296.766 59.112 296.414 60.088 295.71 60.856C295.038 61.592 294.142 61.96 293.022 61.96C291.934 61.96 291.07 61.688 290.43 61.144C289.79 60.568 289.47 59.816 289.47 58.888C289.47 57.352 290.174 56.104 291.582 55.144C291.454 55.112 291.262 55.096 291.006 55.096C290.686 55.096 290.43 55.128 290.238 55.192C289.022 55.384 287.982 56.12 287.118 57.4C286.286 58.68 285.87 59.992 285.87 61.336V74.056C285.87 75.528 286.222 76.552 286.926 77.128C287.662 77.704 288.814 77.992 290.382 77.992V79C289.934 79 289.566 78.984 289.278 78.952C286.014 78.856 283.838 78.808 282.75 78.808C281.886 78.808 279.918 78.856 276.846 78.952C276.59 78.984 276.27 79 275.886 79V77.992C277.038 77.992 277.838 77.752 278.286 77.272C278.734 76.76 278.958 75.848 278.958 74.536V59.416C278.958 57.944 278.734 56.872 278.286 56.2C277.838 55.528 277.038 55.192 275.886 55.192V54.184C276.91 54.28 277.902 54.328 278.862 54.328C281.71 54.328 284.046 54.104 285.87 53.656V58.12C286.478 56.744 287.358 55.64 288.51 54.808C289.662 53.944 290.958 53.512 292.398 53.512ZM306.033 41.8C307.377 41.8 308.433 42.136 309.201 42.808C310.001 43.448 310.401 44.344 310.401 45.496C310.401 46.648 310.001 47.56 309.201 48.232C308.433 48.872 307.377 49.192 306.033 49.192C304.689 49.192 303.617 48.872 302.817 48.232C302.049 47.56 301.665 46.648 301.665 45.496C301.665 44.344 302.049 43.448 302.817 42.808C303.617 42.136 304.689 41.8 306.033 41.8ZM309.777 74.536C309.777 75.848 310.001 76.76 310.449 77.272C310.929 77.752 311.729 77.992 312.849 77.992V79C309.649 78.872 307.521 78.808 306.465 78.808C305.473 78.808 303.249 78.872 299.793 79V77.992C300.945 77.992 301.745 77.752 302.193 77.272C302.641 76.76 302.865 75.848 302.865 74.536V59.416C302.865 57.944 302.641 56.872 302.193 56.2C301.745 55.528 300.945 55.192 299.793 55.192V54.184C300.817 54.28 301.809 54.328 302.769 54.328C305.617 54.328 307.953 54.104 309.777 53.656V74.536ZM322.769 79.336C320.721 79.336 319.185 78.808 318.161 77.752C317.169 76.696 316.673 75.304 316.673 73.576C316.673 72.136 317.041 70.952 317.777 70.024C318.545 69.064 319.457 68.328 320.513 67.816C321.601 67.304 322.977 66.76 324.641 66.184C326.401 65.576 327.681 65.032 328.481 64.552C329.313 64.04 329.729 63.352 329.729 62.488V58.744C329.729 57.4 329.409 56.36 328.769 55.624C328.161 54.856 327.201 54.472 325.889 54.472C324.353 54.472 323.185 54.856 322.385 55.624C323.281 55.944 323.969 56.424 324.449 57.064C324.961 57.704 325.217 58.456 325.217 59.32C325.217 60.408 324.849 61.272 324.113 61.912C323.377 62.552 322.481 62.872 321.425 62.872C320.305 62.872 319.441 62.52 318.833 61.816C318.225 61.112 317.921 60.232 317.921 59.176C317.921 58.28 318.129 57.528 318.545 56.92C318.993 56.28 319.665 55.688 320.561 55.144C321.425 54.632 322.481 54.232 323.729 53.944C325.009 53.656 326.401 53.512 327.905 53.512C329.473 53.512 330.833 53.672 331.985 53.992C333.137 54.312 334.097 54.856 334.865 55.624C335.569 56.328 336.033 57.192 336.257 58.216C336.513 59.24 336.641 60.632 336.641 62.392V75.448C336.641 76.216 336.705 76.76 336.833 77.08C336.993 77.4 337.281 77.56 337.697 77.56C338.177 77.56 338.753 77.288 339.425 76.744L339.905 77.56C338.465 78.744 336.705 79.336 334.625 79.336C332.865 79.336 331.633 78.984 330.929 78.28C330.225 77.576 329.857 76.632 329.825 75.448C328.225 78.04 325.873 79.336 322.769 79.336ZM326.465 76.264C327.713 76.264 328.801 75.608 329.729 74.296V64.456C329.345 65.096 328.529 65.8 327.281 66.568C326.033 67.368 325.089 68.168 324.449 68.968C323.809 69.768 323.489 70.92 323.489 72.424C323.489 73.736 323.761 74.712 324.305 75.352C324.849 75.96 325.569 76.264 326.465 76.264Z" fill="#353535"/>
</svg>
