<svg width="21" height="21" viewBox="0 0 21 21" fill="none" xmlns="http://www.w3.org/2000/svg">
<path d="M10.3409 0.482056C4.79446 0.482056 0.292969 5.01085 0.292969 10.591C0.292969 16.1711 4.79446 20.6999 10.3409 20.6999C15.8874 20.6999 20.3889 16.1711 20.3889 10.591C20.3889 5.01085 15.8874 0.482056 10.3409 0.482056ZM10.3409 3.51473C12.0089 3.51473 13.3553 4.86932 13.3553 6.5474C13.3553 8.22548 12.0089 9.58008 10.3409 9.58008C8.67297 9.58008 7.32654 8.22548 7.32654 6.5474C7.32654 4.86932 8.67297 3.51473 10.3409 3.51473ZM10.3409 17.8694C7.82894 17.8694 5.60834 16.5754 4.31215 14.6143C4.3423 12.6026 8.33134 11.5008 10.3409 11.5008C12.3405 11.5008 16.3396 12.6026 16.3697 14.6143C15.0735 16.5754 12.8529 17.8694 10.3409 17.8694Z" fill="#59595F"/>
</svg>
