<svg width="16" height="16" viewBox="0 0 10 10" fill="none" xmlns="http://www.w3.org/2000/svg">
<path fill-rule="evenodd" clip-rule="evenodd" d="M2.51405 1.57895V1.05263C2.51405 0.471053 2.97604 0 3.54644 0H6.64359C7.21398 0 7.67598 0.471053 7.67598 1.05263V1.57895H9.22455C9.50949 1.57895 9.74075 1.81474 9.74075 2.10526C9.74075 2.39579 9.50949 2.63158 9.22455 2.63158H8.70836V8.42105C8.70836 9.29316 8.01511 10 7.15978 10H3.03024C2.17491 10 1.48166 9.29316 1.48166 8.42105V2.63158H0.965472C0.680534 2.63158 0.44928 2.39579 0.44928 2.10526C0.44928 1.81474 0.680534 1.57895 0.965472 1.57895H2.51405ZM3.54644 1.05263H6.64359V1.57895H3.54644V1.05263ZM2.51405 2.63158H7.67598V8.42105C7.67598 8.71158 7.44472 8.94737 7.15978 8.94737H3.03024C2.7453 8.94737 2.51405 8.71158 2.51405 8.42105V2.63158Z" fill="#FF5F5F"/>
</svg>
