<svg width="18" height="16" viewBox="0 0 11 12" fill="none" xmlns="http://www.w3.org/2000/svg">
<path fill-rule="evenodd" clip-rule="evenodd" d="M10.1209 0.167717C9.91956 -0.0559058 9.59362 -0.0559058 9.3928 0.167717C9.34182 0.224338 9.26406 0.238076 9.19712 0.208908C8.64461 -0.0267253 7.99478 0.102539 7.54937 0.597255L1.9501 6.81636C1.86925 6.90558 1.86925 7.05087 1.9501 7.14009L4.57157 10.0518C4.65189 10.141 4.78217 10.141 4.8625 10.0518L10.4618 3.83263C10.9077 3.33791 11.0241 2.61614 10.8114 2.00246C10.7857 1.92754 10.798 1.84175 10.849 1.78513C11.0503 1.5615 11.0503 1.19947 10.849 0.976421L10.1209 0.167717ZM9.85775 2.56238C9.93808 2.6516 9.93808 2.79686 9.85775 2.88608L4.8625 8.43436C4.78217 8.52358 4.65189 8.52358 4.57157 8.43436L3.4063 7.14009C3.32597 7.05087 3.32597 6.90558 3.4063 6.81636L8.40155 1.2687C8.48188 1.17891 8.61215 1.17891 8.69248 1.2687L9.85775 2.56238Z" fill="#8F8F8F"/>
<path d="M0.260223 11.9918C0.106777 12.0381 -0.0342948 11.8814 0.00741388 11.711L0.911607 8.02891C0.953316 7.85905 1.14435 7.80301 1.25609 7.92712L3.66696 10.6054C3.7787 10.7295 3.72822 10.9412 3.57528 10.9875L0.260223 11.9918Z" fill="#8F8F8F"/>
</svg>
