<svg width="37" height="37" viewBox="0 0 37 37" fill="none" xmlns="http://www.w3.org/2000/svg">
<g clip-path="url(#clip0_196:1923)">
<path d="M18.8233 3.53479C10.5001 3.53479 3.74512 10.2152 3.74512 18.4465C3.74512 26.6778 10.5001 33.3582 18.8233 33.3582H26.3623V30.3759H18.8233C12.2793 30.3759 6.76075 24.9182 6.76075 18.4465C6.76075 11.9748 12.2793 6.51713 18.8233 6.51713C25.3672 6.51713 30.8858 11.9748 30.8858 18.4465V20.5789C30.8858 21.7569 29.8152 22.92 28.6241 22.92C27.4329 22.92 26.3623 21.7569 26.3623 20.5789V18.4465C26.3623 14.3309 22.9848 10.9906 18.8233 10.9906C14.6617 10.9906 11.2842 14.3309 11.2842 18.4465C11.2842 22.5621 14.6617 25.9023 18.8233 25.9023C20.9041 25.9023 22.8039 25.0673 24.1609 23.7103C25.141 25.0375 26.8298 25.9023 28.6241 25.9023C31.5945 25.9023 33.9014 23.5165 33.9014 20.5789V18.4465C33.9014 10.2152 27.1464 3.53479 18.8233 3.53479ZM18.8233 22.92C16.3203 22.92 14.2998 20.9218 14.2998 18.4465C14.2998 15.9712 16.3203 13.973 18.8233 13.973C21.3262 13.973 23.3467 15.9712 23.3467 18.4465C23.3467 20.9218 21.3262 22.92 18.8233 22.92Z" fill="#59595f"/>
</g>
<defs>
<clipPath id="clip0_196:1923">
<rect width="36.1876" height="35.7881" fill="white" transform="translate(0.729492 0.55249)"/>
</clipPath>
</defs>
</svg>
