<svg width="30" height="30" viewBox="0 0 30 30" fill="none" xmlns="http://www.w3.org/2000/svg">
<path d="M15 0.444092C6.72 0.444092 0 7.05256 0 15.1951C0 23.3377 6.72 29.9462 15 29.9462H22.5V26.996H15C8.49 26.996 3 21.5971 3 15.1951C3 8.79318 8.49 3.3943 15 3.3943C21.51 3.3943 27 8.79318 27 15.1951V17.3045C27 18.4699 25.935 19.6204 24.75 19.6204C23.565 19.6204 22.5 18.4699 22.5 17.3045V15.1951C22.5 11.1238 19.14 7.81961 15 7.81961C10.86 7.81961 7.5 11.1238 7.5 15.1951C7.5 19.2664 10.86 22.5706 15 22.5706C17.07 22.5706 18.96 21.7446 20.31 20.4022C21.285 21.7151 22.965 22.5706 24.75 22.5706C27.705 22.5706 30 20.2105 30 17.3045V15.1951C30 7.05256 23.28 0.444092 15 0.444092ZM15 19.6204C12.51 19.6204 10.5 17.6438 10.5 15.1951C10.5 12.7465 12.51 10.7698 15 10.7698C17.49 10.7698 19.5 12.7465 19.5 15.1951C19.5 17.6438 17.49 19.6204 15 19.6204Z" fill="#8F8F8F"/>
</svg>
