<svg width="28" height="28" viewBox="0 0 28 28" fill="none" xmlns="http://www.w3.org/2000/svg">
<rect width="27.7795" height="27.7795" rx="13.8897" fill="#F2F2F2"/>
<g clip-path="url(#clip0_266:1074)">
<path d="M6.58105 13.7413C6.58105 9.62596 9.80487 6.57935 13.9645 6.57935C18.1242 6.57935 21.348 9.62596 21.348 13.7413C21.348 17.8567 18.1242 20.9033 13.9645 20.9033C13.217 20.9033 12.5008 20.8046 11.827 20.62C11.6964 20.5836 11.5572 20.5934 11.4329 20.6477L9.96731 21.2956C9.87879 21.3346 9.78204 21.3513 9.68555 21.3442C9.58907 21.3371 9.4958 21.3064 9.41396 21.2548C9.33211 21.2032 9.26419 21.1323 9.21616 21.0484C9.16813 20.9644 9.14147 20.8699 9.13851 20.7732L9.0979 19.4598C9.0951 19.3799 9.07606 19.3014 9.04194 19.229C9.00783 19.1567 8.95936 19.092 8.89947 19.039C7.46338 17.7543 6.58105 15.8936 6.58105 13.7413ZM11.6997 12.3948L9.53076 15.8355C9.3231 16.1659 9.72827 16.5378 10.0393 16.3025L12.3697 14.5341C12.4464 14.4759 12.5399 14.4442 12.6361 14.4439C12.7324 14.4436 12.8261 14.4746 12.9032 14.5323L14.6281 15.8262C14.7505 15.918 14.8906 15.9835 15.0395 16.0184C15.1885 16.0534 15.343 16.0571 15.4935 16.0293C15.6439 16.0016 15.787 15.943 15.9136 15.8572C16.0403 15.7714 16.1478 15.6603 16.2294 15.5309L18.3983 12.0902C18.6069 11.7598 18.2008 11.3878 17.8898 11.6232L15.5594 13.3915C15.4827 13.4498 15.3892 13.4814 15.293 13.4818C15.1967 13.4821 15.103 13.4511 15.0259 13.3934L13.301 12.0985C13.1786 12.0067 13.0385 11.9413 12.8896 11.9063C12.7406 11.8714 12.5861 11.8677 12.4356 11.8954C12.2852 11.9232 12.1421 11.9818 12.0154 12.0676C11.8888 12.1533 11.7813 12.2644 11.6997 12.3938V12.3948Z" fill="#3C3D7B"/>
</g>
<defs>
<clipPath id="clip0_266:1074">
<rect width="14.767" height="14.767" fill="white" transform="translate(6.58105 6.57935)"/>
</clipPath>
</defs>
</svg>
