<svg width="28" height="28" viewBox="0 0 28 28" fill="none" xmlns="http://www.w3.org/2000/svg">
<rect width="27.7795" height="27.7795" rx="13.8897" fill="#F2F2F2"/>
<g clip-path="url(#clip0_269:1077)">
<path fill-rule="evenodd" clip-rule="evenodd" d="M7.37305 8.12309C7.37305 7.82316 7.4922 7.53551 7.70428 7.32342C7.91637 7.11134 8.20402 6.99219 8.50395 6.99219H19.7773C19.9259 6.99195 20.0732 7.02102 20.2106 7.07776C20.3479 7.13449 20.4728 7.21776 20.578 7.32281C20.6831 7.42785 20.7665 7.55261 20.8234 7.68993C20.8803 7.82726 20.9095 7.97445 20.9094 8.12309V19.3965C20.9096 19.5451 20.8805 19.6924 20.8237 19.8298C20.7669 19.9671 20.6835 20.092 20.5784 20.1971C20.4733 20.3023 20.3485 20.3857 20.2112 20.4426C20.0738 20.4994 19.9266 20.5287 19.7779 20.5286H8.50395C8.35539 20.5286 8.20828 20.4993 8.07103 20.4424C7.93378 20.3856 7.80909 20.3022 7.70406 20.1971C7.59904 20.0921 7.51575 19.9673 7.45896 19.83C7.40216 19.6928 7.37297 19.5456 7.37305 19.3971V8.12309ZM12.731 12.1532H14.564V13.0737C14.8285 12.5446 15.5053 12.0683 16.5224 12.0683C18.4723 12.0683 18.9344 13.1223 18.9344 15.0562V18.6384H16.9611V15.4967C16.9611 14.3954 16.6965 13.7739 16.0247 13.7739C15.0925 13.7739 14.7049 14.444 14.7049 15.4967V18.6384H12.731V12.1532ZM9.3469 18.5541H11.3208V12.0683H9.3469V18.5535V18.5541ZM11.6032 9.95297C11.6069 10.122 11.5768 10.29 11.5147 10.4472C11.4526 10.6045 11.3597 10.7477 11.2415 10.8685C11.1233 10.9894 10.9822 11.0854 10.8263 11.1509C10.6705 11.2165 10.5032 11.2503 10.3341 11.2503C10.1651 11.2503 9.99775 11.2165 9.84193 11.1509C9.68611 11.0854 9.54495 10.9894 9.42675 10.8685C9.30854 10.7477 9.21565 10.6045 9.15355 10.4472C9.09145 10.29 9.06138 10.122 9.0651 9.95297C9.0724 9.62124 9.20931 9.30555 9.44651 9.07352C9.6837 8.8415 10.0023 8.71157 10.3341 8.71157C10.6659 8.71157 10.9846 8.8415 11.2218 9.07352C11.459 9.30555 11.5959 9.62124 11.6032 9.95297V9.95297Z" fill="#3C3D7B"/>
</g>
<defs>
<clipPath id="clip0_269:1077">
<rect width="14.767" height="14.767" fill="white" transform="translate(6.75781 6.37683)"/>
</clipPath>
</defs>
</svg>
