<svg width="28" height="28" viewBox="0 0 28 28" fill="none" xmlns="http://www.w3.org/2000/svg">
<rect width="27.7795" height="27.7795" rx="13.8897" fill="#F2F2F2"/>
<path fill-rule="evenodd" clip-rule="evenodd" d="M16.9358 15.1353C16.7711 15.0529 15.9632 14.6559 15.8128 14.6006C15.6624 14.5459 15.553 14.5188 15.4429 14.6836C15.3335 14.8472 15.0188 15.2177 14.9232 15.3272C14.827 15.4372 14.7313 15.4505 14.5671 15.3686C14.4029 15.2857 13.8732 15.1126 13.2456 14.5531C12.7574 14.1174 12.4273 13.5794 12.3316 13.4146C12.236 13.2504 12.3211 13.1614 12.4035 13.0795C12.4776 13.006 12.5677 12.8877 12.6501 12.792C12.7325 12.6958 12.7596 12.6272 12.8143 12.5172C12.8696 12.4077 12.842 12.3121 12.8005 12.2297C12.7596 12.1473 12.4311 11.3384 12.294 11.0094C12.1608 10.6892 12.0253 10.7329 11.9247 10.7274C11.8285 10.723 11.719 10.7218 11.6095 10.7218C11.5 10.7218 11.322 10.7628 11.1716 10.9275C11.0206 11.0918 10.5965 11.4893 10.5965 12.2982C10.5965 13.1066 11.1849 13.8879 11.2672 13.9979C11.3496 14.1074 12.4256 15.7673 14.0739 16.4789C14.4665 16.6481 14.7722 16.7493 15.0105 16.8245C15.4042 16.95 15.7625 16.9323 16.0456 16.8897C16.3608 16.8427 17.0177 16.4922 17.1548 16.1084C17.2914 15.7247 17.2914 15.3957 17.2504 15.3272C17.2095 15.2586 17.1 15.2177 16.9353 15.1353H16.9358ZM13.9379 19.2286H13.9357C12.9567 19.2288 11.9956 18.9656 11.1533 18.4667L10.9543 18.3483L8.88524 18.8913L9.43761 16.8742L9.30768 16.6674C8.76036 15.7962 8.47071 14.7879 8.47221 13.7591C8.47331 10.7456 10.925 8.29395 13.9401 8.29395C15.3998 8.29395 16.7722 8.86347 17.8039 9.89633C18.3128 10.4031 18.7162 11.0058 18.9906 11.6695C19.2651 12.3332 19.4053 13.0447 19.403 13.7629C19.4019 16.7764 16.9502 19.2286 13.9379 19.2286V19.2286ZM18.5891 9.11173C17.9799 8.49849 17.255 8.01226 16.4565 7.6812C15.658 7.35015 14.8017 7.18085 13.9373 7.18313C10.3134 7.18313 7.36304 10.133 7.36193 13.7585C7.36138 14.9174 7.66383 16.0487 8.23942 17.0456L7.30664 20.4533L10.7923 19.5388C11.7565 20.0641 12.837 20.3394 13.9351 20.3394H13.9379C17.5617 20.3394 20.5121 17.3896 20.5132 13.7635C20.5159 12.8994 20.3472 12.0434 20.017 11.2449C19.6867 10.4465 19.2014 9.72142 18.5891 9.11173" fill="#3C3D7B"/>
</svg>
