<svg width="26" height="26" viewBox="0 0 26 26" fill="none" xmlns="http://www.w3.org/2000/svg">
<path fill-rule="evenodd" clip-rule="evenodd" d="M13.0012 0.783173C9.4706 0.783173 9.02751 0.798052 7.64083 0.858877C6.25686 0.919962 5.31218 1.13115 4.48559 1.44102C3.63056 1.76106 2.90526 2.18918 2.18267 2.88592C1.45954 3.5824 1.01536 4.28149 0.682236 5.10535C0.359941 5.90234 0.140564 6.81314 0.0782716 8.14657C0.0162502 9.48314 0 9.91048 0 13.3135C0 16.7165 0.0157085 17.1423 0.0785425 18.4789C0.142189 19.8128 0.361295 20.7234 0.682507 21.5201C1.01482 22.3442 1.45899 23.0433 2.18186 23.7398C2.90418 24.4368 3.62948 24.866 4.48396 25.186C5.3111 25.4959 6.25604 25.7071 7.63975 25.7681C9.02643 25.829 9.46924 25.8438 12.9996 25.8438C16.5305 25.8438 16.9722 25.829 18.3589 25.7681C19.7429 25.7071 20.6886 25.4959 21.5158 25.186C22.3705 24.866 23.0947 24.4368 23.8171 23.7398C24.5402 23.0433 24.9844 22.3442 25.3175 21.5204C25.6371 20.7234 25.8565 19.8126 25.9215 18.4791C25.9837 17.1426 26 16.7165 26 13.3135C26 9.91048 25.9837 9.4834 25.9215 8.14683C25.8565 6.81287 25.6371 5.90234 25.3175 5.10562C24.9844 4.28149 24.5402 3.5824 23.8171 2.88592C23.0939 2.18892 22.3708 1.7608 21.515 1.44102C20.6862 1.13115 19.741 0.919962 18.357 0.858877C16.9703 0.798052 16.5289 0.783173 12.9972 0.783173H13.0012ZM11.8349 3.04121C12.1811 3.04069 12.5673 3.04121 13.0012 3.04121C16.4722 3.04121 16.8836 3.05322 18.2543 3.11326C19.5218 3.16912 20.2097 3.37326 20.668 3.54477C21.2747 3.77188 21.7072 4.04337 22.1619 4.48194C22.6169 4.9205 22.8986 5.33818 23.1348 5.92292C23.3127 6.3641 23.5248 7.02716 23.5825 8.24887C23.6447 9.56977 23.6583 9.96657 23.6583 13.3106C23.6583 16.6546 23.6447 17.0514 23.5825 18.3723C23.5245 19.594 23.3127 20.2571 23.1348 20.6983C22.8991 21.283 22.6169 21.6994 22.1619 22.1377C21.7069 22.5763 21.2749 22.8478 20.668 23.0749C20.2103 23.2472 19.5218 23.4508 18.2543 23.5066C16.8839 23.5667 16.4722 23.5797 13.0012 23.5797C9.52986 23.5797 9.11845 23.5667 7.74802 23.5066C6.48051 23.4503 5.79259 23.2461 5.33406 23.0746C4.72739 22.8475 4.29405 22.576 3.83905 22.1374C3.38404 21.6989 3.10237 21.2822 2.8662 20.6972C2.68826 20.2561 2.4762 19.593 2.41851 18.3713C2.35622 17.0504 2.34376 16.6536 2.34376 13.3075C2.34376 9.96135 2.35622 9.56664 2.41851 8.24574C2.47647 7.02403 2.68826 6.36096 2.8662 5.91927C3.10183 5.33452 3.38404 4.91684 3.83905 4.47828C4.29405 4.03972 4.72739 3.76823 5.33406 3.54059C5.79232 3.3683 6.48051 3.16468 7.74802 3.10856C8.94729 3.05635 9.41204 3.04069 11.8349 3.03808V3.04121ZM19.9405 5.12177C19.0793 5.12177 18.3805 5.79449 18.3805 6.62489C18.3805 7.45502 19.0793 8.12853 19.9405 8.12853C20.8018 8.12853 21.5005 7.45502 21.5005 6.62489C21.5005 5.79475 20.8018 5.12177 19.9405 5.12177ZM13.0012 6.87862C9.31435 6.87862 6.32513 9.75982 6.32513 13.3135C6.32513 16.8671 9.31435 19.747 13.0012 19.747C16.6881 19.747 19.6763 16.8671 19.6763 13.3135C19.6763 9.75982 16.6881 6.87862 13.0012 6.87862ZM13.0012 9.13669C15.3943 9.13669 17.3346 11.0066 17.3346 13.3135C17.3346 15.6201 15.3943 17.4903 13.0012 17.4903C10.6078 17.4903 8.66781 15.6201 8.66781 13.3135C8.66781 11.0066 10.6078 9.13669 13.0012 9.13669Z" fill="#4F4F4F"/>
</svg>
