<svg width="28" height="28" viewBox="0 0 28 28" fill="none" xmlns="http://www.w3.org/2000/svg">
<rect width="27.7795" height="27.7795" rx="13.8897" fill="#F2F2F2"/>
<path fill-rule="evenodd" clip-rule="evenodd" d="M11.0257 7.08907C11.7474 7.05585 11.9776 7.04846 13.816 7.04846C15.6545 7.04846 15.8847 7.05646 16.6058 7.08907C17.3269 7.12168 17.8191 7.23674 18.2498 7.40348C18.7008 7.57392 19.11 7.84034 19.4484 8.1849C19.793 8.5227 20.0588 8.93125 20.2286 9.38288C20.396 9.81358 20.5104 10.3058 20.5436 11.0257C20.5769 11.7487 20.5842 11.9788 20.5842 13.8167C20.5842 15.6551 20.5762 15.8853 20.5436 16.607C20.511 17.3269 20.396 17.8191 20.2286 18.2498C20.0588 18.7015 19.7925 19.1107 19.4484 19.449C19.11 19.7936 18.7008 20.0594 18.2498 20.2292C17.8191 20.3966 17.3269 20.511 16.607 20.5442C15.8847 20.5775 15.6545 20.5849 13.816 20.5849C11.9776 20.5849 11.7474 20.5769 11.0257 20.5442C10.3058 20.5116 9.81358 20.3966 9.38288 20.2292C8.93121 20.0594 8.52198 19.7931 8.18368 19.449C7.83935 19.111 7.57289 18.702 7.40287 18.2504C7.23613 17.8197 7.12169 17.3275 7.08846 16.6076C7.05524 15.8847 7.04785 15.6545 7.04785 13.8167C7.04785 11.9782 7.05585 11.7481 7.08846 11.0269C7.12107 10.3058 7.23613 9.81358 7.40287 9.38288C7.57314 8.9313 7.8398 8.52228 8.18429 8.18429C8.52211 7.84003 8.93093 7.57358 9.38226 7.40348C9.81297 7.23674 10.3052 7.1223 11.0251 7.08907H11.0257ZM16.551 8.30735C15.8373 8.27474 15.6232 8.26797 13.816 8.26797C12.0089 8.26797 11.7948 8.27474 11.0811 8.30735C10.4209 8.3375 10.0628 8.44763 9.82404 8.54054C9.5084 8.6636 9.28259 8.80942 9.0457 9.04631C8.82115 9.26477 8.64833 9.53072 8.53993 9.82465C8.44702 10.0634 8.33689 10.4215 8.30674 11.0817C8.27413 11.7954 8.26736 12.0096 8.26736 13.8167C8.26736 15.6238 8.27413 15.8379 8.30674 16.5516C8.33689 17.2118 8.44702 17.5699 8.53993 17.8087C8.64822 18.1022 8.82112 18.3686 9.0457 18.587C9.26413 18.8116 9.53055 18.9845 9.82404 19.0928C10.0628 19.1857 10.4209 19.2958 11.0811 19.326C11.7948 19.3586 12.0083 19.3654 13.816 19.3654C15.6238 19.3654 15.8373 19.3586 16.551 19.326C17.2112 19.2958 17.5693 19.1857 17.8081 19.0928C18.1237 18.9697 18.3495 18.8239 18.5864 18.587C18.811 18.3686 18.9839 18.1022 19.0922 17.8087C19.1851 17.5699 19.2952 17.2118 19.3254 16.5516C19.358 15.8379 19.3647 15.6238 19.3647 13.8167C19.3647 12.0096 19.358 11.7954 19.3254 11.0817C19.2952 10.4215 19.1851 10.0634 19.0922 9.82465C18.9691 9.50901 18.8233 9.2832 18.5864 9.04631C18.3679 8.82177 18.102 8.64896 17.8081 8.54054C17.5693 8.44763 17.2112 8.3375 16.551 8.30735V8.30735ZM12.9516 15.9031C13.4344 16.1041 13.972 16.1312 14.4725 15.9799C14.9731 15.8285 15.4056 15.508 15.6961 15.0732C15.9867 14.6384 16.1173 14.1162 16.0656 13.5958C16.0139 13.0754 15.7831 12.5891 15.4127 12.22C15.1766 11.984 14.8911 11.8033 14.5768 11.6909C14.2624 11.5785 13.9271 11.5372 13.5948 11.57C13.2626 11.6028 12.9418 11.7088 12.6555 11.8804C12.3692 12.0521 12.1245 12.285 11.939 12.5626C11.7535 12.8402 11.6319 13.1554 11.5829 13.4856C11.5338 13.8158 11.5586 14.1528 11.6555 14.4723C11.7523 14.7917 11.9188 15.0858 12.1429 15.3332C12.367 15.5806 12.6432 15.7752 12.9516 15.9031ZM11.3561 11.3567C11.6792 11.0337 12.0627 10.7774 12.4847 10.6026C12.9068 10.4278 13.3592 10.3378 13.816 10.3378C14.2729 10.3378 14.7253 10.4278 15.1474 10.6026C15.5694 10.7774 15.9529 11.0337 16.276 11.3567C16.599 11.6798 16.8553 12.0633 17.0301 12.4854C17.2049 12.9074 17.2949 13.3598 17.2949 13.8167C17.2949 14.2735 17.2049 14.7259 17.0301 15.148C16.8553 15.57 16.599 15.9535 16.276 16.2766C15.6236 16.929 14.7387 17.2955 13.816 17.2955C12.8934 17.2955 12.0085 16.929 11.3561 16.2766C10.7037 15.6242 10.3372 14.7393 10.3372 13.8167C10.3372 12.894 10.7037 12.0091 11.3561 11.3567V11.3567ZM18.0665 10.8559C18.1465 10.7804 18.2106 10.6896 18.2549 10.5888C18.2993 10.4881 18.3229 10.3795 18.3245 10.2695C18.3261 10.1594 18.3057 10.0502 18.2643 9.94821C18.2229 9.84623 18.1615 9.75359 18.0837 9.67578C18.0059 9.59796 17.9132 9.53655 17.8112 9.49518C17.7093 9.4538 17.6 9.43331 17.49 9.43492C17.38 9.43652 17.2714 9.46019 17.1706 9.50452C17.0699 9.54884 16.9791 9.61293 16.9036 9.69298C16.7567 9.84867 16.6763 10.0555 16.6794 10.2695C16.6825 10.4835 16.7689 10.6878 16.9203 10.8392C17.0716 10.9905 17.276 11.0769 17.49 11.08C17.704 11.0832 17.9108 11.0027 18.0665 10.8559V10.8559Z" fill="#3C3D7B"/>
</svg>
