<svg width="25" height="25" viewBox="0 0 25 25" fill="none" xmlns="http://www.w3.org/2000/svg">
<path opacity="0.1" fill-rule="evenodd" clip-rule="evenodd" d="M0.739502 12.3853C0.739502 5.75784 6.11208 0.385254 12.7395 0.385254C19.3669 0.385254 24.7395 5.75784 24.7395 12.3853C24.7395 19.0127 19.3669 24.3853 12.7395 24.3853C6.11208 24.3853 0.739502 19.0127 0.739502 12.3853Z" fill="#F9F8F9"/>
<path fill-rule="evenodd" clip-rule="evenodd" d="M12.7401 5.98535C11.0019 5.98535 10.7838 5.99295 10.1011 6.02402C9.41978 6.05522 8.9547 6.16309 8.54777 6.32136C8.12683 6.48482 7.76976 6.70349 7.41402 7.05936C7.05802 7.4151 6.83935 7.77217 6.67535 8.19297C6.51668 8.60005 6.40868 9.06525 6.37801 9.74632C6.34748 10.429 6.33948 10.6473 6.33948 12.3854C6.33948 14.1236 6.34721 14.341 6.37814 15.0237C6.40948 15.7051 6.51735 16.1701 6.67548 16.5771C6.83908 16.998 7.05775 17.3551 7.41362 17.7108C7.76923 18.0668 8.1263 18.286 8.54697 18.4495C8.95417 18.6077 9.41938 18.7156 10.1006 18.7468C10.7833 18.7779 11.0013 18.7855 12.7393 18.7855C14.4776 18.7855 14.695 18.7779 15.3777 18.7468C16.059 18.7156 16.5247 18.6077 16.9319 18.4495C17.3527 18.286 17.7092 18.0668 18.0648 17.7108C18.4208 17.3551 18.6395 16.998 18.8035 16.5772C18.9608 16.1701 19.0688 15.7049 19.1008 15.0238C19.1315 14.3412 19.1395 14.1236 19.1395 12.3854C19.1395 10.6473 19.1315 10.4291 19.1008 9.74646C19.0688 9.06512 18.9608 8.60005 18.8035 8.19311C18.6395 7.77217 18.4208 7.4151 18.0648 7.05936C17.7088 6.70336 17.3528 6.48469 16.9315 6.32136C16.5235 6.16309 16.0581 6.05522 15.3768 6.02402C14.6941 5.99295 14.4768 5.98535 12.7381 5.98535H12.7401ZM12.1659 7.13868C12.3363 7.13841 12.5264 7.13868 12.7401 7.13868C14.4489 7.13868 14.6514 7.14481 15.3262 7.17548C15.9502 7.20401 16.2889 7.30828 16.5145 7.39588C16.8132 7.51188 17.0261 7.65055 17.25 7.87455C17.474 8.09856 17.6126 8.31189 17.7289 8.61056C17.8165 8.8359 17.9209 9.17457 17.9493 9.79857C17.98 10.4732 17.9866 10.6759 17.9866 12.3839C17.9866 14.092 17.98 14.2946 17.9493 14.9693C17.9208 15.5933 17.8165 15.932 17.7289 16.1573C17.6129 16.456 17.474 16.6686 17.25 16.8925C17.026 17.1165 16.8133 17.2552 16.5145 17.3712C16.2892 17.4592 15.9502 17.5632 15.3262 17.5917C14.6515 17.6224 14.4489 17.6291 12.7401 17.6291C11.0311 17.6291 10.8286 17.6224 10.1539 17.5917C9.52988 17.5629 9.19121 17.4587 8.96548 17.3711C8.66681 17.2551 8.45347 17.1164 8.22947 16.8924C8.00547 16.6684 7.8668 16.4556 7.75053 16.1568C7.66293 15.9314 7.55853 15.5928 7.53013 14.9688C7.49946 14.2941 7.49333 14.0914 7.49333 12.3823C7.49333 10.6732 7.49946 10.4716 7.53013 9.79697C7.55866 9.17297 7.66293 8.8343 7.75053 8.60869C7.86653 8.31002 8.00547 8.09669 8.22947 7.87269C8.45347 7.64868 8.66681 7.51002 8.96548 7.39375C9.19108 7.30575 9.52988 7.20175 10.1539 7.17308C10.7443 7.14641 10.9731 7.13841 12.1659 7.13708V7.13868ZM16.1564 8.20136C15.7324 8.20136 15.3883 8.54496 15.3883 8.9691C15.3883 9.39311 15.7324 9.73711 16.1564 9.73711C16.5804 9.73711 16.9244 9.39311 16.9244 8.9691C16.9244 8.5451 16.5804 8.20136 16.1564 8.20136ZM12.7401 9.0987C10.925 9.0987 9.45339 10.5703 9.45339 12.3854C9.45339 14.2005 10.925 15.6714 12.7401 15.6714C14.5552 15.6714 16.0263 14.2005 16.0263 12.3854C16.0263 10.5703 14.5552 9.0987 12.7401 9.0987ZM12.7401 10.252C13.9182 10.252 14.8734 11.2071 14.8734 12.3854C14.8734 13.5635 13.9182 14.5188 12.7401 14.5188C11.5618 14.5188 10.6067 13.5635 10.6067 12.3854C10.6067 11.2071 11.5618 10.252 12.7401 10.252Z" fill="white"/>
</svg>
