<svg width="173" height="61" viewBox="0 0 173 61" fill="none" xmlns="http://www.w3.org/2000/svg">
<path fill-rule="evenodd" clip-rule="evenodd" d="M46.7046 5.00567L43.7782 7.75434C42.6492 8.67645 42.0897 9.0123 40.8912 10.1647L26.096 22.6269C25.1327 23.4989 24.574 24.2657 23.4727 25.2759C22.557 26.1157 21.757 27.2204 20.8588 28.184C16.0634 33.3288 7.55455 44.6309 6.26941 50.6816L7.48988 50.4852C8.26578 50.0204 12.6342 48.1865 15.2504 46.6661C17.4165 45.4073 20.9319 43.4864 22.2923 41.7113C20.4554 42.2953 19.0074 43.6912 16.7371 44.4858C15.0392 45.0803 11.8925 46.0942 10.3265 46.3587C12.0393 45.4897 13.6223 44.9788 15.5348 44.1709C19.0432 42.6888 27.6086 37.583 29.4588 35.2455C27.5754 36.1485 23.9932 37.7589 21.4261 37.8583C26.7568 35.9028 37.3747 31.6094 38.6426 26.1425C35.7097 26.413 29.1054 29.3109 23.2698 29.6669C24.4834 28.9084 31.4631 27.3149 36.3204 25.0804C39.6723 23.5385 45.5234 20.6025 46.68 17.9678C46.5712 17.9921 46.176 18.1066 46.082 18.1089C45.2083 18.1303 46.5824 18.2104 45.682 18.0934L45.3093 17.9619C46.0606 17.6888 46.5139 17.4018 47.1187 17.0078C48.1823 16.3148 48.1225 16.4962 47.2646 15.9678C49.7947 15.1757 51.991 12.3366 52.4028 9.15304C50.2635 9.58429 48.5014 10.9117 46.2759 11.0797C51.5049 8.72905 49.8424 9.13734 53.1006 7.39239L53.4729 3.27454L50.9598 4.19277C51.86 2.95448 52.9633 3.19339 53.1979 1.31274L51.6163 1.91917C48.9127 2.7224 49.2551 2.9334 46.7046 5.00567V5.00567Z" fill="white"/>
<path fill-rule="evenodd" clip-rule="evenodd" d="M1.89178 45.821L1.97809 46.556C1.39524 46.0077 1.60965 46.3145 1.33121 45.606C0.710185 44.8989 1.1204 44.8592 0.249004 44.1912C-0.292502 46.8016 -0.0286786 50.4295 1.8187 51.6211C3.41635 50.9812 4.75911 47.5915 5.6164 45.7609C6.71837 43.4077 7.88469 41.538 9.1161 39.4114C14.8659 29.4829 18.8448 24.6711 27.4438 17.8488C31.9064 14.308 35.2874 11.4378 37.2231 10.0835C37.4296 9.93894 38.3462 9.20427 39.5136 8.32821C40.3913 7.66958 50.8343 1.04366 45.0689 5.13125C41.7052 7.51609 37.7252 10.3269 37.6759 10.366C34.3409 13.0125 26.3206 19.9475 22.96 23.21L18.5559 27.7238C17.1947 29.3218 13.5201 33.5679 10.1531 38.701C6.40439 44.4158 3.01678 51.0728 3.22371 53.1001C5.57908 53.1022 4.16511 52.6633 5.14839 51.3588C6.7599 44.7788 12.4328 36.2234 18.696 29.0167C21.7587 25.4925 25.4922 22.3382 27.9363 19.8028L35.4749 13.5772C36.0297 13.1664 36.4926 12.897 37.0185 12.4479C40.6451 9.45328 43.1236 7.44025 45.3296 5.23282C46.7204 4.32744 50.1134 0.117754 50.1147 0.115198L46.9137 1.93334L47.4857 0.292252C46.4332 0.838508 45.6191 2.00862 44.7477 2.78831L45.8888 0C42.092 0.437883 33.0215 4.74982 30.9963 7.79414C29.9817 9.31928 29.5321 11.0151 28.6012 12.4926L28.7922 8.8341C27.1116 9.33847 25.671 10.7219 24.3799 11.592C23.0298 12.5017 21.6708 13.2827 21.4642 15.472L21.2508 14.116C18.8308 14.7723 14.8089 19.2267 13.2705 21.1202C10.5444 24.4754 9.13273 26.9512 11.2376 31.532C10.1361 31.0305 10.1434 29.8166 9.05218 28.5792L8.35421 29.2185C8.16661 29.4676 8.03033 29.7131 7.83056 29.9984C2.97061 36.9395 3.299 32.7953 2.67987 43.6722L2.40176 43.3654C2.15421 43.058 2.19271 42.8499 1.6392 42.6222C1.48117 43.9969 1.45077 44.5585 1.89178 45.821V45.821Z" fill="white"/>
<path fill-rule="evenodd" clip-rule="evenodd" d="M1.64879 60.4631L3.72497 58.5572C4.41013 57.854 4.38595 56.713 4.32117 55.5525L1.649 55.4962C0.166072 56.842 0.321899 57.8502 0.95376 59.3242L1.64879 60.4631V60.4631Z" fill="white"/>
<path d="M96.4367 53.7323L95.6504 56.6126C95.225 57.0437 94.8771 57.2573 94.5291 57.2573C94.0392 57.2573 93.717 56.9 93.717 56.2413C93.717 55.4529 94.065 54.2832 94.6064 53.4947C95.0446 52.848 95.5731 52.5147 95.9726 52.5147C96.3336 52.5147 96.5527 52.7282 96.5527 53.0755C96.5527 53.1834 96.5269 53.4229 96.4367 53.7323ZM98.4861 57.0078C98.2154 57.1615 98.0092 57.2454 97.8932 57.2454C97.7514 57.2454 97.6225 57.0916 97.6225 56.864C97.6225 56.7204 97.6612 56.5048 97.7385 56.2413L99.7364 49.3529C98.9115 49.4487 98.0994 49.4967 97.326 49.4967C97.2358 49.4967 97.1585 49.4967 97.0683 49.4967C96.9909 49.6763 96.9523 49.796 96.9523 49.8439C96.9523 50.0495 97.4292 50.1094 97.4292 50.4108C97.4292 50.6045 97.3518 50.82 97.2745 51.0855L96.8878 52.3231C96.4754 52.0596 96.05 51.9398 95.573 51.9398C94.6708 51.9398 93.7428 52.3949 92.905 53.2791C92.08 54.1395 91.6675 55.0596 91.6675 56.0397C91.6675 57.3291 92.5054 58.0837 93.6783 58.0837C94.3614 58.0837 95.0188 57.8322 95.6118 57.3531C95.818 57.904 96.1789 58.0956 96.9136 58.0956C97.6096 58.0956 98.2025 57.8561 98.6795 57.389L98.4861 57.0078ZM104.506 56.5028C103.9 57.0537 103.436 57.377 102.843 57.377C102.031 57.377 101.528 56.8621 101.528 55.9399C101.528 55.7602 101.541 55.5806 101.58 55.389C104.145 55.3411 105.511 54.5147 105.511 53.2333C105.511 52.4788 104.828 51.9398 103.668 51.9398C102.521 51.9398 101.373 52.4308 100.497 53.3171C99.8137 54.0117 99.427 54.9459 99.427 55.892C99.427 57.2693 100.355 58.0956 102.082 58.0956C103.229 58.0956 104.041 57.7483 104.905 56.898L104.506 56.5028ZM101.696 54.8021C102.018 53.341 102.881 52.5147 103.577 52.5147C103.951 52.5147 104.183 52.7183 104.183 53.0776C104.183 53.8441 103.229 54.7901 101.696 54.8021ZM112.677 58.0956L116.712 51.5206C117.098 50.8979 117.369 50.4547 117.64 50.2751C117.885 50.1194 118.336 50.1434 118.336 49.6643C118.336 49.6164 118.336 49.5685 118.323 49.4967H115.926C115.874 49.6403 115.848 49.7601 115.848 49.9039C115.848 50.1075 116.338 50.1314 116.338 50.4548C116.338 50.5745 116.274 50.6943 116.183 50.838L113.335 55.5327L112.742 51.4368C112.69 51.1015 112.665 50.862 112.665 50.7302C112.665 50.4188 112.781 50.2512 113.077 50.1673C113.373 50.0835 113.412 49.9278 113.412 49.4967H109.932C109.867 49.6643 109.842 49.808 109.842 49.9158C109.842 50.2751 110.216 50.1553 110.46 50.4308C110.615 50.6104 110.628 50.9218 110.692 51.3769L111.608 58.0956H112.677ZM121.12 56.5028C120.514 57.0537 120.05 57.377 119.457 57.377C118.645 57.377 118.143 56.8621 118.143 55.9399C118.143 55.7602 118.155 55.5806 118.194 55.389C120.759 55.3411 122.125 54.5147 122.125 53.2333C122.125 52.4788 121.442 51.9398 120.282 51.9398C119.135 51.9398 117.988 52.4308 117.111 53.3171C116.428 54.0117 116.042 54.9459 116.042 55.892C116.042 57.2693 116.97 58.0956 118.697 58.0956C119.844 58.0956 120.656 57.7483 121.52 56.898L121.12 56.5028ZM118.31 54.8021C118.632 53.341 119.496 52.5147 120.192 52.5147C120.566 52.5147 120.798 52.7183 120.798 53.0776C120.798 53.8441 119.844 54.7901 118.31 54.8021ZM124.149 57.9519C125.167 54.9778 126.005 53.4848 126.456 53.4848C126.65 53.4848 126.804 53.8899 127.32 53.8899C127.964 53.8899 128.415 53.4608 128.415 52.826C128.415 52.2991 128.003 51.9398 127.423 51.9398C126.624 51.9398 125.902 52.7063 125.116 54.2253C125.232 53.6145 125.232 53.1015 125.232 52.6943C125.232 52.4788 125.232 52.2272 125.219 51.9757H124.961C124.265 52.3231 123.543 52.5147 122.692 52.5865C122.692 52.6224 122.692 52.6584 122.692 52.6943C122.692 52.9458 122.77 53.0896 122.95 53.1614C123.144 53.2333 123.401 53.2093 123.401 53.7462C123.401 54.1415 123.015 55.5387 122.28 57.9519H124.149ZM132.862 53.7323L132.076 56.6126C131.651 57.0437 131.303 57.2573 130.955 57.2573C130.465 57.2573 130.143 56.9 130.143 56.2413C130.143 55.4529 130.491 54.2832 131.032 53.4947C131.47 52.848 131.999 52.5147 132.398 52.5147C132.759 52.5147 132.978 52.7282 132.978 53.0755C132.978 53.1834 132.952 53.4229 132.862 53.7323ZM134.912 57.0078C134.641 57.1615 134.435 57.2454 134.319 57.2454C134.177 57.2454 134.048 57.0916 134.048 56.864C134.048 56.7204 134.087 56.5048 134.164 56.2413L136.162 49.3529C135.337 49.4487 134.525 49.4967 133.752 49.4967C133.661 49.4967 133.584 49.4967 133.494 49.4967C133.417 49.6763 133.378 49.796 133.378 49.8439C133.378 50.0495 133.855 50.1094 133.855 50.4108C133.855 50.6045 133.777 50.82 133.7 51.0855L133.313 52.3231C132.901 52.0596 132.476 51.9398 131.999 51.9398C131.096 51.9398 130.168 52.3949 129.331 53.2791C128.506 54.1395 128.093 55.0596 128.093 56.0397C128.093 57.3291 128.931 58.0837 130.104 58.0837C130.787 58.0837 131.444 57.8322 132.037 57.3531C132.244 57.904 132.605 58.0956 133.339 58.0956C134.035 58.0956 134.628 57.8561 135.105 57.389L134.912 57.0078ZM140.931 56.5028C140.325 57.0537 139.861 57.377 139.268 57.377C138.456 57.377 137.954 56.8621 137.954 55.9399C137.954 55.7602 137.966 55.5806 138.005 55.389C140.57 55.3411 141.936 54.5147 141.936 53.2333C141.936 52.4788 141.253 51.9398 140.093 51.9398C138.946 51.9398 137.799 52.4308 136.922 53.3171C136.239 54.0117 135.853 54.9459 135.853 55.892C135.853 57.2693 136.781 58.0956 138.508 58.0956C139.655 58.0956 140.467 57.7483 141.331 56.898L140.931 56.5028ZM138.121 54.8021C138.443 53.341 139.307 52.5147 140.003 52.5147C140.377 52.5147 140.609 52.7183 140.609 53.0776C140.609 53.8441 139.655 54.7901 138.121 54.8021ZM143.561 53.7602L142.62 56.7902C142.323 57.7603 142.413 58.5867 142.31 59.2094C142.233 59.7005 142.117 59.9639 141.846 59.9639C141.743 59.9639 141.679 59.8681 141.679 59.7244C141.679 59.5807 141.769 59.449 141.769 59.2933C141.769 58.8382 141.498 58.6106 140.995 58.6106C140.454 58.6106 140.029 58.9939 140.029 59.5447C140.029 60.1555 140.544 60.5627 141.434 60.5627C142.336 60.5627 142.98 60.3352 143.535 59.7244C143.973 59.2334 144.102 58.7184 144.269 58.1196L146.074 51.9039C145.12 52.0836 144.244 52.2033 143.47 52.2033C143.432 52.2033 143.393 52.2033 143.354 52.2033C143.277 52.3709 143.238 52.4788 143.238 52.5506C143.238 52.7183 143.715 52.8141 143.715 53.1015C143.715 53.3171 143.638 53.5207 143.561 53.7602ZM144.244 50.4308C144.244 51.0416 144.772 51.5446 145.404 51.5446C146.035 51.5446 146.564 51.0416 146.564 50.4308C146.564 49.808 146.035 49.329 145.404 49.329C144.772 49.329 144.244 49.808 144.244 50.4308ZM152.248 52.4907C151.655 52.1195 151.088 51.9398 150.469 51.9398C149.503 51.9398 148.549 52.3949 147.724 53.2791C146.912 54.1514 146.512 55.0596 146.512 56.1116C146.512 57.2932 147.363 58.0837 148.523 58.0837C149.206 58.0837 149.863 57.8322 150.456 57.3531C150.663 57.904 151.024 58.0956 151.758 58.0956C152.454 58.0956 153.047 57.8561 153.524 57.389L153.331 57.0078C153.047 57.1615 152.854 57.2454 152.738 57.2454C152.583 57.2454 152.467 57.1036 152.467 56.8521C152.467 56.7204 152.506 56.5647 152.557 56.3611L153.769 51.9757H153.524L152.248 52.4907ZM151.294 53.7562L150.74 55.8241C150.482 56.7922 149.979 57.2454 149.322 57.2454C148.884 57.2454 148.574 56.936 148.574 56.3491C148.574 55.7163 148.807 54.7603 149.245 53.9718C149.747 53.0755 150.405 52.6105 150.869 52.6105C151.243 52.6105 151.397 52.7762 151.397 53.1594C151.397 53.3031 151.359 53.5067 151.294 53.7562ZM156.025 57.9519L157.339 53.6165C157.932 53.0177 158.474 52.7302 158.873 52.7302C159.157 52.7302 159.402 52.9338 159.402 53.1853C159.402 53.3889 159.311 53.6405 159.221 53.9518L158.641 55.892C158.499 56.3591 158.383 56.7303 158.383 57.0417C158.383 57.7244 158.835 58.0956 159.685 58.0956C160.278 58.0956 160.832 57.8561 161.361 57.401L161.18 57.0298C160.923 57.2094 160.729 57.2813 160.613 57.2813C160.471 57.2813 160.343 57.1375 160.343 56.9938C160.343 56.9579 160.368 56.8501 160.42 56.6705L161.232 53.9518C161.348 53.5805 161.412 53.3291 161.412 53.1853C161.412 52.4548 160.768 51.9398 159.788 51.9398C159.028 51.9398 158.332 52.2033 157.597 52.7302L157.816 51.9398C156.746 52.0836 155.883 52.2033 155.2 52.2033C155.161 52.2033 155.135 52.2033 155.097 52.2033C155.019 52.3709 154.981 52.4788 154.981 52.5506C154.981 52.7183 155.457 52.8141 155.457 53.1015C155.457 53.3051 155.38 53.5087 155.303 53.7602L154.053 57.9519H156.025ZM165.872 50.5146L164.467 50.6344C164.274 50.6464 164.248 50.7541 164.197 50.9099L164.08 51.3051C163.913 51.8919 163.694 51.9039 163.256 52.1314C163.088 52.2152 162.985 52.4069 162.985 52.6824H163.565L162.469 56.4429C162.392 56.7184 162.353 56.9339 162.353 57.1136C162.353 57.6885 162.856 58.0956 163.707 58.0956C164.39 58.0956 165.034 57.8322 165.717 57.2932L165.485 56.922C165.15 57.1136 164.893 57.2214 164.738 57.2214C164.506 57.2214 164.39 57.1136 164.39 56.8741C164.39 56.7662 164.416 56.5866 164.48 56.3591L165.576 52.6824H166.89L167.032 52.0716H165.795L166.117 50.8859C166.143 50.7781 166.181 50.6823 166.181 50.6224C166.181 50.5386 166.104 50.5027 166.053 50.5027C166.04 50.5027 165.975 50.5027 165.872 50.5146ZM171.995 56.5028C171.389 57.0537 170.925 57.377 170.332 57.377C169.52 57.377 169.017 56.8621 169.017 55.9399C169.017 55.7602 169.03 55.5806 169.069 55.389C171.634 55.3411 173 54.5147 173 53.2333C173 52.4788 172.317 51.9398 171.157 51.9398C170.01 51.9398 168.862 52.4308 167.986 53.3171C167.303 54.0117 166.916 54.9459 166.916 55.892C166.916 57.2693 167.844 58.0956 169.571 58.0956C170.719 58.0956 171.531 57.7483 172.394 56.898L171.995 56.5028ZM169.185 54.8021C169.507 53.341 170.371 52.5147 171.067 52.5147C171.44 52.5147 171.672 52.7183 171.672 53.0776C171.672 53.8441 170.719 54.7901 169.185 54.8021Z" fill="white"/>
<path d="M56.0046 39.4924C54.7452 41.0411 53.6865 41.8715 52.5367 41.8715C50.967 41.8715 49.9449 40.4574 49.9449 38.0334C49.9449 36.2604 50.4377 33.7691 51.3321 31.7267C52.2994 29.5271 53.504 28.3825 54.6904 28.3825C55.3293 28.3825 55.8768 28.7865 56.26 29.6169C56.4974 30.1106 56.4974 30.7166 56.5886 31.3451C56.6981 32.1306 56.9536 32.4898 57.5012 32.4898C57.5925 32.4898 57.702 32.4673 57.8298 32.4448L58.8154 27.7316H57.9028C57.702 28.0457 57.5559 28.2029 57.3734 28.2029C56.8442 28.2029 56.0775 27.0807 54.3437 27.0807C52.2994 27.0807 50.4377 28.158 48.9593 30.2453C47.5539 32.2204 46.7325 34.9361 46.7325 37.4948C46.7325 40.9736 48.6672 43.4649 51.6971 43.4649C53.7778 43.4649 55.0919 42.5896 56.6981 40.3901L56.0046 39.4924ZM66.1709 32.961C65.3314 32.2653 64.5283 31.9286 63.6521 31.9286C62.2833 31.9286 60.9327 32.7816 59.7645 34.4386C58.6146 36.0733 58.0487 37.7753 58.0487 39.7468C58.0487 41.9612 59.2534 43.4426 60.8961 43.4426C61.8634 43.4426 62.7943 42.9712 63.6339 42.0735C63.926 43.1059 64.437 43.4649 65.4774 43.4649C66.463 43.4649 67.3026 43.0161 67.9779 42.1408L67.7041 41.4263C67.3026 41.7144 67.0288 41.8715 66.8645 41.8715C66.6455 41.8715 66.4812 41.6059 66.4812 41.1345C66.4812 40.8876 66.5359 40.5959 66.609 40.2143L68.3247 31.996H67.9779L66.1709 32.961ZM64.8203 35.3327L64.0354 39.2081C63.6704 41.0223 62.9586 41.8715 62.0278 41.8715C61.4072 41.8715 60.9691 41.2917 60.9691 40.1918C60.9691 39.006 61.2977 37.2143 61.9182 35.7367C62.6301 34.0571 63.5609 33.1855 64.218 33.1855C64.7472 33.1855 64.9663 33.496 64.9663 34.2142C64.9663 34.4836 64.9116 34.8651 64.8203 35.3327ZM71.3911 43.1956C72.8329 37.622 74.0193 34.824 74.6581 34.824C74.9319 34.824 75.1509 35.5833 75.881 35.5833C76.7937 35.5833 77.4324 34.779 77.4324 33.5895C77.4324 32.602 76.8484 31.9286 76.027 31.9286C74.8955 31.9286 73.8733 33.3651 72.7599 36.2118C72.9242 35.0671 72.9242 34.1057 72.9242 33.3426C72.9242 32.9387 72.9242 32.4673 72.906 31.996H72.5409C71.5553 32.6469 70.5332 33.006 69.3285 33.1406C69.3285 33.208 69.3285 33.2753 69.3285 33.3426C69.3285 33.8139 69.438 34.0833 69.6936 34.218C69.9674 34.3526 70.3324 34.3078 70.3324 35.314C70.3324 36.0546 69.7849 38.6731 68.7445 43.1956H71.3911ZM82.1597 29.2577L80.1702 29.4822C79.8965 29.5047 79.86 29.7066 79.787 29.9985L79.6226 30.7391C79.3854 31.8388 79.0751 31.8613 78.4545 32.2877C78.2172 32.4448 78.0713 32.804 78.0713 33.3202H78.8926L77.3412 40.3676C77.2316 40.8839 77.1769 41.2879 77.1769 41.6246C77.1769 42.7019 77.8888 43.4649 79.0934 43.4649C80.0607 43.4649 80.9733 42.9712 81.9407 41.9612L81.6121 41.2655C81.1376 41.6246 80.7726 41.8265 80.5535 41.8265C80.225 41.8265 80.0607 41.6246 80.0607 41.1757C80.0607 40.9736 80.0973 40.637 80.1885 40.2106L81.7399 33.3202H83.6017L83.8024 32.1756H82.0502L82.5065 29.9535C82.543 29.7516 82.5978 29.572 82.5978 29.4598C82.5978 29.3027 82.4883 29.2354 82.4152 29.2354C82.397 29.2354 82.3057 29.2354 82.1597 29.2577ZM83.7841 38.3365C83.7841 41.4711 85.4633 43.4426 88.2559 43.4426C91.5959 43.4426 93.8227 40.708 93.8227 37.0347C93.8227 33.9224 92.0888 31.9286 89.2049 31.9286C86.0108 31.9286 83.7841 34.7978 83.7841 38.3365ZM86.5584 39.7916C86.5584 38.2019 87.1242 36.0285 87.9821 34.5284C88.5296 33.5858 89.1868 33.0958 89.7525 33.0958C90.5739 33.0958 91.0484 33.9224 91.0484 35.5346C91.0484 37.0796 90.6103 38.9387 89.8255 40.5061C89.2232 41.7181 88.5296 42.3204 87.8543 42.3204C86.9783 42.3204 86.5584 41.4711 86.5584 39.7916ZM89.3144 30.7166L92.2531 28.6967C92.6546 28.4273 92.8554 28.0907 92.8554 27.6867C92.8554 27.1705 92.5086 26.7441 92.1253 26.7441C91.7967 26.7441 91.4682 26.9685 91.1214 27.3724L88.3654 30.7166H89.3144ZM97.1081 43.1956C98.55 37.622 99.7364 34.824 100.375 34.824C100.649 34.824 100.868 35.5833 101.598 35.5833C102.511 35.5833 103.149 34.779 103.149 33.5895C103.149 32.602 102.565 31.9286 101.744 31.9286C100.613 31.9286 99.5903 33.3651 98.477 36.2118C98.6413 35.0671 98.6413 34.1057 98.6413 33.3426C98.6413 32.9387 98.6413 32.4673 98.623 31.996H98.258C97.2724 32.6469 96.2503 33.006 95.0456 33.1406C95.0456 33.208 95.0456 33.2753 95.0456 33.3426C95.0456 33.8139 95.1551 34.0833 95.4106 34.218C95.6845 34.3526 96.0495 34.3078 96.0495 35.314C96.0495 36.0546 95.5019 38.6731 94.4616 43.1956H97.1081ZM105.486 29.1007C105.486 30.2453 106.234 31.188 107.128 31.188C108.023 31.188 108.771 30.2453 108.771 29.1007C108.771 27.9336 108.023 27.0358 107.128 27.0358C106.234 27.0358 105.486 27.9336 105.486 29.1007ZM104.19 35.3402L103.058 40.3676C102.93 40.9063 102.894 41.3103 102.894 41.5348C102.894 42.7243 103.569 43.4649 104.792 43.4649C105.741 43.4649 106.599 43.0161 107.274 42.1408L107.001 41.4225C106.636 41.6919 106.38 41.849 106.198 41.849C105.979 41.849 105.76 41.6021 105.76 41.243C105.76 41.0186 105.832 40.5921 105.96 39.9861L107.749 31.8613C106.398 32.198 105.157 32.4225 104.062 32.4225C104.007 32.4225 103.953 32.4225 103.898 32.4225C103.788 32.7366 103.734 32.9387 103.734 33.0733C103.734 33.3875 104.409 33.567 104.409 34.1057C104.409 34.5097 104.299 34.8913 104.19 35.3402ZM108.497 38.3365C108.497 41.4711 110.177 43.4426 112.969 43.4426C116.309 43.4426 118.536 40.708 118.536 37.0347C118.536 33.9224 116.802 31.9286 113.918 31.9286C110.724 31.9286 108.497 34.7978 108.497 38.3365ZM111.272 39.7916C111.272 38.2019 111.837 36.0285 112.695 34.5284C113.243 33.5858 113.9 33.0958 114.466 33.0958C115.287 33.0958 115.762 33.9224 115.762 35.5346C115.762 37.0796 115.324 38.9387 114.539 40.5061C113.936 41.7181 113.243 42.3204 112.568 42.3204C111.692 42.3204 111.272 41.4711 111.272 39.7916ZM126.695 27.3501C126.64 27.5745 126.603 27.754 126.603 27.9336C126.603 28.6742 127.388 28.6967 127.388 29.2354C127.388 29.5496 127.333 29.8862 127.242 30.2902L125.673 37.7866C125.526 38.46 125.472 39.0435 125.472 39.5372C125.472 41.8715 127.078 43.4649 129.871 43.4649C132.627 43.4649 134.361 42.0061 134.926 39.2679L136.825 30.1556C136.989 29.3252 137.117 28.9211 137.682 28.6742C138.175 28.4498 138.358 28.1132 138.376 27.3501H135.036C134.981 27.5745 134.963 27.754 134.963 27.9336C134.963 28.6742 135.748 28.6967 135.748 29.2354C135.748 29.5271 135.693 29.8862 135.602 30.2902L133.995 37.809C133.74 39.021 133.576 40.0759 132.882 40.8839C132.262 41.6246 131.349 42.051 130.29 42.051C129.049 42.051 128.392 41.3103 128.392 39.9861C128.392 39.6495 128.447 39.1781 128.575 38.5721L130.363 30.1556C130.528 29.3475 130.637 28.9211 131.221 28.6742C131.714 28.4498 131.878 28.1132 131.896 27.3501H126.695ZM132.462 25.8911L135.401 23.8712C135.802 23.6018 136.003 23.2652 136.003 22.8612C136.003 22.345 135.656 21.9186 135.273 21.9186C134.945 21.9186 134.616 22.143 134.269 22.5469L131.513 25.8911H132.462ZM139.435 43.1956L141.296 35.0709C142.136 33.9486 142.902 33.4099 143.468 33.4099C143.87 33.4099 144.217 33.7915 144.217 34.2628C144.217 34.6444 144.089 35.1157 143.961 35.6993L143.14 39.3352C142.939 40.2106 142.775 40.9063 142.775 41.4899C142.775 42.7692 143.414 43.4649 144.618 43.4649C145.458 43.4649 146.243 43.0161 146.991 42.1633L146.735 41.4675C146.37 41.8041 146.097 41.9388 145.932 41.9388C145.732 41.9388 145.549 41.6694 145.549 41.4001C145.549 41.3328 145.585 41.1307 145.659 40.7941L146.808 35.6993C146.973 35.0035 147.064 34.5322 147.064 34.2628C147.064 32.8937 146.151 31.9286 144.764 31.9286C143.687 31.9286 142.702 32.4225 141.661 33.4099L141.972 31.9286C140.457 32.198 139.234 32.4225 138.266 32.4225C138.212 32.4225 138.175 32.4225 138.12 32.4225C138.011 32.7366 137.956 32.9387 137.956 33.0733C137.956 33.3875 138.632 33.567 138.632 34.1057C138.632 34.4873 138.522 34.8688 138.412 35.3402L136.642 43.1956H139.435ZM150.988 29.1007C150.988 30.2453 151.736 31.188 152.631 31.188C153.525 31.188 154.273 30.2453 154.273 29.1007C154.273 27.9336 153.525 27.0358 152.631 27.0358C151.736 27.0358 150.988 27.9336 150.988 29.1007ZM149.692 35.3402L148.561 40.3676C148.433 40.9063 148.396 41.3103 148.396 41.5348C148.396 42.7243 149.072 43.4649 150.294 43.4649C151.244 43.4649 152.101 43.0161 152.777 42.1408L152.503 41.4225C152.138 41.6919 151.882 41.849 151.7 41.849C151.481 41.849 151.262 41.6021 151.262 41.243C151.262 41.0186 151.335 40.5921 151.463 39.9861L153.251 31.8613C151.901 32.198 150.659 32.4225 149.564 32.4225C149.51 32.4225 149.455 32.4225 149.4 32.4225C149.291 32.7366 149.236 32.9387 149.236 33.0733C149.236 33.3875 149.911 33.567 149.911 34.1057C149.911 34.5097 149.802 34.8913 149.692 35.3402ZM160.862 40.5285C160.059 41.5834 159.22 42.0959 158.49 42.0959C157.358 42.0959 156.774 41.0896 156.774 39.0958C156.774 35.7816 158.599 33.0508 159.603 33.0508C159.767 33.0508 159.895 33.2079 159.895 33.3164C159.895 33.4735 159.676 33.7653 159.676 34.2815C159.676 35.2654 160.169 35.8714 160.972 35.8714C161.793 35.8714 162.359 35.1531 162.359 34.1918C162.359 32.9162 161.428 31.9286 159.95 31.9286C158.453 31.9286 156.829 32.7366 155.734 34.0571C154.602 35.4225 153.927 37.3714 153.927 39.2754C153.927 41.7854 155.369 43.4874 157.577 43.4874C159.129 43.4874 160.242 42.7916 161.428 41.2243L160.862 40.5285ZM162.961 38.3365C162.961 41.4711 164.641 43.4426 167.433 43.4426C170.773 43.4426 173 40.708 173 37.0347C173 33.9224 171.266 31.9286 168.382 31.9286C165.188 31.9286 162.961 34.7978 162.961 38.3365ZM165.736 39.7916C165.736 38.2019 166.302 36.0285 167.159 34.5284C167.707 33.5858 168.364 33.0958 168.93 33.0958C169.751 33.0958 170.226 33.9224 170.226 35.5346C170.226 37.0796 169.788 38.9387 169.003 40.5061C168.401 41.7181 167.707 42.3204 167.032 42.3204C166.156 42.3204 165.736 41.4711 165.736 39.7916Z" fill="white"/>
</svg>
