<svg width="119" height="135" viewBox="0 0 119 135" fill="none" xmlns="http://www.w3.org/2000/svg">
<path fill-rule="evenodd" clip-rule="evenodd" d="M103.938 11.1397L97.4254 17.2567C94.9129 19.3088 93.6677 20.0562 91.0006 22.6209L58.0749 50.3547C55.9312 52.2953 54.6877 54.0016 52.237 56.2497C50.199 58.1187 48.4187 60.577 46.4198 62.7216C35.748 74.1711 16.8122 99.3231 13.9521 112.789L16.6682 112.351C18.3949 111.317 28.1167 107.236 33.9387 103.852C38.7592 101.051 46.5825 96.776 49.61 92.8258C45.5222 94.1253 42.2997 97.2319 37.2473 99.0002C33.4688 100.323 26.466 102.58 22.981 103.168C26.7927 101.234 30.3156 100.097 34.5717 98.2993C42.3793 95.001 61.4411 83.6384 65.5586 78.4365C61.3671 80.4459 53.3953 84.0299 47.6823 84.2511C59.5454 79.8993 83.175 70.3445 85.9966 58.1785C79.4695 58.7802 64.7721 65.2293 51.7854 66.0216C54.4862 64.3338 70.019 60.7875 80.8286 55.8148C88.288 52.3833 101.309 45.8496 103.883 39.9862C103.641 40.0403 102.762 40.295 102.552 40.3002C100.608 40.3478 103.666 40.526 101.662 40.2657L100.833 39.9729C102.505 39.3653 103.514 38.7265 104.86 37.8497C107.226 36.3075 107.093 36.7112 105.184 35.5353C110.815 33.7726 115.703 27.4542 116.619 20.3694C111.858 21.3292 107.937 24.2832 102.984 24.6572C114.621 19.4259 110.921 20.3345 118.172 16.4512L119 7.28722L113.408 9.33069C115.411 6.57496 117.866 7.10663 118.388 2.92139L114.869 4.27094C108.852 6.05847 109.614 6.52805 103.938 11.1397V11.1397Z" fill="white"/>
<path fill-rule="evenodd" clip-rule="evenodd" d="M4.21004 101.972L4.40211 103.607C3.10501 102.387 3.58217 103.07 2.96253 101.493C1.58047 99.9196 2.49337 99.8312 0.554143 98.3446C-0.650945 104.154 -0.0638223 112.227 4.04739 114.879C7.60287 113.455 10.5911 105.912 12.4989 101.838C14.9513 96.6008 17.5468 92.44 20.2873 87.7075C33.0832 65.6122 41.9379 54.9039 61.0743 39.7212C71.0055 31.8415 78.5297 25.454 82.8375 22.4401C83.2971 22.1184 85.3369 20.4835 87.9348 18.5339C89.8883 17.0681 113.128 2.32259 100.298 11.4192C92.8122 16.7266 83.9548 22.9818 83.8451 23.0689C76.4234 28.9584 58.5747 44.3918 51.0959 51.6523L41.2948 61.6974C38.2657 65.2538 30.0881 74.7032 22.5951 86.1266C14.2525 98.8445 6.71365 113.659 7.17416 118.171C12.4159 118.175 9.26918 117.199 11.4574 114.296C15.0437 99.6523 27.6683 80.6128 41.6068 64.5748C48.4226 56.7319 56.7312 49.7122 62.1704 44.0698L78.947 30.2152C80.1818 29.3009 81.2118 28.7015 82.3821 27.7019C90.453 21.0377 95.9687 16.5578 100.878 11.6453C103.973 9.63043 111.524 0.262054 111.527 0.256366L104.403 4.30251L105.676 0.650387C103.334 1.86604 101.522 4.47006 99.5831 6.20521L102.122 0C93.6729 0.974479 73.4872 10.5704 68.9802 17.3453C66.7223 20.7394 65.7217 24.5134 63.65 27.8015L64.0752 19.6597C60.3351 20.7821 57.129 23.8609 54.2559 25.7971C51.2513 27.8217 48.227 29.5598 47.7672 34.432L47.2922 31.4142C41.9068 32.8747 32.9563 42.7878 29.5326 47.0017C23.4658 54.4684 20.3243 59.978 25.0086 70.1723C22.5572 69.0564 22.5735 66.355 20.145 63.6011L18.5917 65.0239C18.1742 65.5783 17.871 66.1245 17.4264 66.7595C6.6109 82.2063 7.3417 72.9838 5.96388 97.1895L5.34496 96.5068C4.79406 95.8227 4.87974 95.3597 3.64792 94.8529C3.29625 97.9121 3.22858 99.1621 4.21004 101.972V101.972Z" fill="white"/>
<path fill-rule="evenodd" clip-rule="evenodd" d="M3.66947 134.557L8.28988 130.315C9.81466 128.75 9.76084 126.211 9.61668 123.628L3.66995 123.503C0.369783 126.498 0.716565 128.742 2.12273 132.022L3.66947 134.557V134.557Z" fill="white"/>
</svg>
