<svg width="385" height="135" viewBox="0 0 385 135" fill="none" xmlns="http://www.w3.org/2000/svg">
<path fill-rule="evenodd" clip-rule="evenodd" d="M103.938 11.1397L97.4254 17.2567C94.9129 19.3088 93.6677 20.0562 91.0006 22.6209L58.0749 50.3547C55.9312 52.2953 54.6877 54.0016 52.237 56.2497C50.199 58.1187 48.4187 60.577 46.4198 62.7216C35.748 74.1711 16.8122 99.3231 13.9521 112.789L16.6682 112.351C18.3949 111.317 28.1167 107.236 33.9387 103.852C38.7592 101.051 46.5825 96.776 49.61 92.8258C45.5222 94.1253 42.2997 97.2319 37.2473 99.0002C33.4688 100.323 26.466 102.58 22.981 103.168C26.7927 101.234 30.3156 100.097 34.5717 98.2993C42.3793 95.001 61.4411 83.6384 65.5586 78.4365C61.3671 80.4459 53.3953 84.0299 47.6823 84.2511C59.5454 79.8993 83.175 70.3445 85.9966 58.1785C79.4695 58.7802 64.7721 65.2293 51.7854 66.0216C54.4862 64.3338 70.019 60.7875 80.8286 55.8148C88.288 52.3833 101.309 45.8496 103.883 39.9862C103.641 40.0403 102.762 40.295 102.552 40.3002C100.608 40.3478 103.666 40.526 101.662 40.2657L100.833 39.9729C102.505 39.3653 103.514 38.7265 104.86 37.8497C107.226 36.3075 107.093 36.7112 105.184 35.5353C110.815 33.7726 115.703 27.4542 116.619 20.3694C111.858 21.3292 107.937 24.2832 102.984 24.6572C114.621 19.4259 110.921 20.3345 118.172 16.4512L119 7.28722L113.408 9.33069C115.411 6.57496 117.866 7.10664 118.388 2.92139L114.869 4.27094C108.852 6.05847 109.614 6.52805 103.938 11.1397Z" fill="#029551"/>
<path fill-rule="evenodd" clip-rule="evenodd" d="M4.21004 101.972L4.40211 103.607C3.10501 102.387 3.58217 103.07 2.96253 101.493C1.58047 99.9196 2.49337 99.8312 0.554143 98.3446C-0.650945 104.154 -0.0638223 112.227 4.04739 114.879C7.60287 113.455 10.5911 105.912 12.4989 101.838C14.9513 96.6008 17.5469 92.44 20.2873 87.7075C33.0832 65.6122 41.9379 54.9039 61.0743 39.7212C71.0055 31.8415 78.5297 25.454 82.8375 22.4401C83.2971 22.1184 85.3369 20.4835 87.9348 18.5339C89.8883 17.0681 113.128 2.32259 100.298 11.4192C92.8122 16.7266 83.9548 22.9818 83.8451 23.0689C76.4234 28.9584 58.5747 44.3918 51.0959 51.6523L41.2948 61.6974C38.2657 65.2538 30.0881 74.7032 22.5951 86.1266C14.2525 98.8445 6.71365 113.659 7.17416 118.171C12.4159 118.175 9.26918 117.199 11.4574 114.296C15.0437 99.6523 27.6683 80.6128 41.6068 64.5748C48.4226 56.7319 56.7312 49.7122 62.1704 44.0698L78.947 30.2152C80.1818 29.3009 81.2118 28.7015 82.3821 27.7019C90.453 21.0377 95.9687 16.5578 100.878 11.6453C103.973 9.63043 111.524 0.262054 111.527 0.256366L104.403 4.30251L105.676 0.650387C103.334 1.86604 101.522 4.47006 99.5831 6.20521L102.122 0C93.6729 0.974479 73.4872 10.5704 68.9802 17.3453C66.7223 20.7394 65.7217 24.5134 63.65 27.8015L64.0752 19.6597C60.3351 20.7821 57.129 23.8609 54.2559 25.7971C51.2513 27.8217 48.227 29.5598 47.7672 34.432L47.2922 31.4142C41.9068 32.8747 32.9563 42.7878 29.5326 47.0017C23.4658 54.4684 20.3243 59.978 25.0086 70.1723C22.5572 69.0564 22.5735 66.355 20.145 63.6011L18.5917 65.0239C18.1742 65.5783 17.871 66.1245 17.4264 66.7595C6.61091 82.2063 7.3417 72.9838 5.96388 97.1895L5.34496 96.5068C4.79406 95.8227 4.87974 95.3597 3.64792 94.8529C3.29625 97.9121 3.22858 99.1621 4.21004 101.972Z" fill="#029551"/>
<path fill-rule="evenodd" clip-rule="evenodd" d="M3.66922 134.557L8.28963 130.315C9.81441 128.75 9.7606 126.211 9.61644 123.628L3.6697 123.503C0.369539 126.498 0.716321 128.742 2.12249 132.022L3.66922 134.557Z" fill="#059452"/>
<path d="M214.613 119.578L212.864 125.988C211.917 126.947 211.143 127.422 210.368 127.422C209.278 127.422 208.561 126.627 208.561 125.161C208.561 123.407 209.335 120.804 210.54 119.049C211.516 117.61 212.691 116.868 213.581 116.868C214.384 116.868 214.872 117.343 214.872 118.116C214.872 118.356 214.814 118.889 214.613 119.578ZM219.174 126.867C218.572 127.209 218.113 127.396 217.855 127.396C217.539 127.396 217.252 127.054 217.252 126.547C217.252 126.227 217.338 125.748 217.511 125.161L221.957 109.832C220.121 110.045 218.314 110.151 216.593 110.151C216.392 110.151 216.22 110.151 216.019 110.151C215.847 110.551 215.761 110.818 215.761 110.924C215.761 111.382 216.822 111.515 216.822 112.186C216.822 112.617 216.65 113.096 216.478 113.687L215.617 116.441C214.7 115.855 213.753 115.589 212.691 115.589C210.684 115.589 208.618 116.601 206.754 118.569C204.918 120.484 204 122.531 204 124.713C204 127.582 205.865 129.261 208.475 129.261C209.995 129.261 211.458 128.702 212.778 127.636C213.237 128.861 214.04 129.288 215.675 129.288C217.224 129.288 218.543 128.755 219.605 127.715L219.174 126.867ZM232.57 125.743C231.222 126.969 230.189 127.689 228.87 127.689C227.063 127.689 225.944 126.543 225.944 124.49C225.944 124.091 225.973 123.691 226.059 123.265C231.767 123.158 234.807 121.319 234.807 118.467C234.807 116.788 233.287 115.589 230.705 115.589C228.153 115.589 225.6 116.681 223.649 118.654C222.129 120.199 221.268 122.278 221.268 124.384C221.268 127.449 223.333 129.288 227.177 129.288C229.73 129.288 231.537 128.515 233.459 126.623L232.57 125.743ZM226.317 121.958C227.034 118.707 228.956 116.868 230.505 116.868C231.337 116.868 231.853 117.321 231.853 118.121C231.853 119.826 229.73 121.932 226.317 121.958ZM250.756 129.288L259.734 114.656C260.595 113.27 261.197 112.284 261.8 111.884C262.345 111.537 263.349 111.591 263.349 110.525C263.349 110.418 263.349 110.311 263.32 110.151H257.985C257.87 110.471 257.812 110.738 257.812 111.058C257.812 111.511 258.902 111.564 258.902 112.284C258.902 112.55 258.759 112.817 258.558 113.136L252.219 123.584L250.899 114.469C250.785 113.723 250.727 113.19 250.727 112.897C250.727 112.204 250.986 111.831 251.645 111.644C252.305 111.457 252.391 111.111 252.391 110.151H244.646C244.503 110.525 244.445 110.844 244.445 111.084C244.445 111.884 245.277 111.617 245.822 112.23C246.167 112.63 246.195 113.323 246.339 114.336L248.375 129.288H250.756ZM269.544 125.743C268.196 126.969 267.164 127.689 265.844 127.689C264.037 127.689 262.918 126.543 262.918 124.49C262.918 124.091 262.947 123.691 263.033 123.265C268.741 123.158 271.782 121.319 271.782 118.467C271.782 116.788 270.262 115.589 267.68 115.589C265.127 115.589 262.574 116.681 260.624 118.654C259.103 120.199 258.243 122.278 258.243 124.384C258.243 127.449 260.308 129.288 264.152 129.288C266.705 129.288 268.512 128.515 270.434 126.623L269.544 125.743ZM263.291 121.958C264.008 118.707 265.93 116.868 267.479 116.868C268.311 116.868 268.827 117.321 268.827 118.121C268.827 119.826 266.705 121.932 263.291 121.958ZM276.285 128.968C278.551 122.349 280.416 119.027 281.42 119.027C281.85 119.027 282.194 119.928 283.342 119.928C284.776 119.928 285.78 118.973 285.78 117.561C285.78 116.388 284.862 115.589 283.571 115.589C281.793 115.589 280.186 117.294 278.437 120.675C278.695 119.315 278.695 118.174 278.695 117.268C278.695 116.788 278.695 116.228 278.666 115.668H278.092C276.544 116.441 274.937 116.868 273.044 117.028C273.044 117.108 273.044 117.188 273.044 117.268C273.044 117.827 273.216 118.147 273.618 118.307C274.048 118.467 274.622 118.414 274.622 119.609C274.622 120.488 273.761 123.598 272.126 128.968H276.285ZM295.676 119.578L293.926 125.988C292.98 126.947 292.205 127.422 291.431 127.422C290.341 127.422 289.624 126.627 289.624 125.161C289.624 123.407 290.398 120.804 291.603 119.049C292.578 117.61 293.754 116.868 294.643 116.868C295.447 116.868 295.934 117.343 295.934 118.116C295.934 118.356 295.877 118.889 295.676 119.578ZM300.237 126.867C299.635 127.209 299.176 127.396 298.917 127.396C298.602 127.396 298.315 127.054 298.315 126.547C298.315 126.227 298.401 125.748 298.573 125.161L303.019 109.832C301.184 110.045 299.376 110.151 297.655 110.151C297.455 110.151 297.282 110.151 297.082 110.151C296.91 110.551 296.824 110.818 296.824 110.924C296.824 111.382 297.885 111.515 297.885 112.186C297.885 112.617 297.713 113.096 297.541 113.687L296.68 116.441C295.762 115.855 294.815 115.589 293.754 115.589C291.746 115.589 289.681 116.601 287.817 118.569C285.981 120.484 285.063 122.531 285.063 124.713C285.063 127.582 286.927 129.261 289.538 129.261C291.058 129.261 292.521 128.702 293.84 127.636C294.299 128.861 295.102 129.288 296.738 129.288C298.286 129.288 299.606 128.755 300.667 127.715L300.237 126.867ZM313.633 125.743C312.285 126.969 311.252 127.689 309.932 127.689C308.125 127.689 307.006 126.543 307.006 124.49C307.006 124.091 307.035 123.691 307.121 123.265C312.83 123.158 315.87 121.319 315.87 118.467C315.87 116.788 314.35 115.589 311.768 115.589C309.215 115.589 306.662 116.681 304.712 118.654C303.192 120.199 302.331 122.278 302.331 124.384C302.331 127.449 304.396 129.288 308.24 129.288C310.793 129.288 312.6 128.515 314.522 126.623L313.633 125.743ZM307.38 121.958C308.097 118.707 310.018 116.868 311.567 116.868C312.399 116.868 312.916 117.321 312.916 118.121C312.916 119.826 310.793 121.932 307.38 121.958ZM319.484 119.64L317.39 126.383C316.731 128.542 316.931 130.381 316.702 131.767C316.53 132.859 316.272 133.446 315.669 133.446C315.44 133.446 315.296 133.232 315.296 132.913C315.296 132.593 315.497 132.3 315.497 131.953C315.497 130.94 314.895 130.434 313.776 130.434C312.571 130.434 311.625 131.287 311.625 132.513C311.625 133.872 312.772 134.778 314.751 134.778C316.759 134.778 318.193 134.272 319.427 132.913C320.402 131.82 320.689 130.674 321.062 129.341L325.078 115.509C322.955 115.908 321.005 116.175 319.284 116.175C319.198 116.175 319.111 116.175 319.025 116.175C318.853 116.548 318.767 116.788 318.767 116.948C318.767 117.321 319.829 117.534 319.829 118.174C319.829 118.654 319.656 119.107 319.484 119.64ZM321.005 112.23C321.005 113.59 322.181 114.709 323.586 114.709C324.992 114.709 326.168 113.59 326.168 112.23C326.168 110.844 324.992 109.778 323.586 109.778C322.181 109.778 321.005 110.844 321.005 112.23ZM338.818 116.814C337.498 115.988 336.236 115.589 334.859 115.589C332.708 115.589 330.585 116.601 328.749 118.569C326.942 120.51 326.053 122.531 326.053 124.873C326.053 127.502 327.946 129.261 330.528 129.261C332.048 129.261 333.511 128.702 334.831 127.636C335.29 128.861 336.093 129.288 337.728 129.288C339.277 129.288 340.596 128.755 341.658 127.715L341.227 126.867C340.596 127.209 340.166 127.396 339.908 127.396C339.564 127.396 339.305 127.08 339.305 126.521C339.305 126.227 339.391 125.881 339.506 125.428L342.202 115.668H341.658L338.818 116.814ZM336.695 119.631L335.462 124.233C334.888 126.387 333.769 127.396 332.306 127.396C331.331 127.396 330.643 126.707 330.643 125.401C330.643 123.993 331.159 121.865 332.134 120.111C333.253 118.116 334.716 117.081 335.748 117.081C336.58 117.081 336.925 117.45 336.925 118.303C336.925 118.623 336.839 119.076 336.695 119.631ZM347.222 128.968L350.148 119.32C351.468 117.987 352.672 117.348 353.562 117.348C354.193 117.348 354.738 117.801 354.738 118.36C354.738 118.813 354.537 119.373 354.336 120.066L353.045 124.384C352.73 125.423 352.472 126.25 352.472 126.943C352.472 128.462 353.476 129.288 355.369 129.288C356.688 129.288 357.922 128.755 359.098 127.742L358.696 126.916C358.123 127.316 357.692 127.476 357.434 127.476C357.119 127.476 356.832 127.156 356.832 126.836C356.832 126.756 356.889 126.516 357.004 126.116L358.811 120.066C359.069 119.24 359.213 118.68 359.213 118.36C359.213 116.735 357.778 115.589 355.598 115.589C353.906 115.589 352.357 116.175 350.722 117.348L351.209 115.589C348.829 115.908 346.907 116.175 345.386 116.175C345.3 116.175 345.243 116.175 345.157 116.175C344.985 116.548 344.899 116.788 344.899 116.948C344.899 117.321 345.96 117.534 345.96 118.174C345.96 118.627 345.788 119.08 345.616 119.64L342.834 128.968H347.222ZM369.137 112.417L366.011 112.683C365.58 112.71 365.523 112.95 365.408 113.296L365.15 114.176C364.777 115.482 364.29 115.509 363.314 116.015C362.941 116.202 362.712 116.628 362.712 117.241H364.003L361.565 125.61C361.392 126.223 361.306 126.703 361.306 127.102C361.306 128.382 362.425 129.288 364.318 129.288C365.839 129.288 367.273 128.702 368.793 127.502L368.277 126.676C367.531 127.102 366.957 127.342 366.613 127.342C366.097 127.342 365.839 127.102 365.839 126.569C365.839 126.329 365.896 125.93 366.039 125.423L368.478 117.241H371.404L371.719 115.882H368.965L369.682 113.243C369.74 113.003 369.826 112.79 369.826 112.657C369.826 112.47 369.654 112.39 369.539 112.39C369.51 112.39 369.367 112.39 369.137 112.417ZM382.763 125.743C381.414 126.969 380.382 127.689 379.062 127.689C377.255 127.689 376.136 126.543 376.136 124.49C376.136 124.091 376.165 123.691 376.251 123.265C381.959 123.158 385 121.319 385 118.467C385 116.788 383.48 115.589 380.898 115.589C378.345 115.589 375.792 116.681 373.842 118.654C372.321 120.199 371.461 122.278 371.461 124.384C371.461 127.449 373.526 129.288 377.37 129.288C379.923 129.288 381.73 128.515 383.652 126.623L382.763 125.743ZM376.509 121.958C377.226 118.707 379.148 116.868 380.697 116.868C381.529 116.868 382.045 117.321 382.045 118.121C382.045 119.826 379.923 121.932 376.509 121.958Z" fill="#4F4F4F"/>
<path d="M124.634 87.8876C121.832 91.3341 119.476 93.1822 116.917 93.1822C113.424 93.1822 111.149 90.0353 111.149 84.6409C111.149 80.6951 112.246 75.1509 114.236 70.6056C116.389 65.7106 119.07 63.1633 121.71 63.1633C123.132 63.1633 124.35 64.0624 125.203 65.9105C125.731 67.0092 125.731 68.3578 125.934 69.7564C126.178 71.5045 126.747 72.3038 127.965 72.3038C128.168 72.3038 128.412 72.2538 128.696 72.2038L130.89 61.7148H128.859C128.412 62.4139 128.087 62.7636 127.681 62.7636C126.503 62.7636 124.797 60.2662 120.938 60.2662C116.389 60.2662 112.246 62.6638 108.956 67.3089C105.828 71.7043 104 77.748 104 83.4421C104 91.184 108.306 96.7283 115.048 96.7283C119.679 96.7283 122.603 94.7804 126.178 89.8855L124.634 87.8876ZM147.259 73.3526C145.391 71.8044 143.603 71.055 141.654 71.055C138.607 71.055 135.602 72.9532 133.002 76.6408C130.443 80.2788 129.184 84.0665 129.184 88.4538C129.184 93.3818 131.865 96.6785 135.52 96.6785C137.673 96.6785 139.744 95.6296 141.613 93.6317C142.263 95.9292 143.4 96.7283 145.716 96.7283C147.909 96.7283 149.777 95.7294 151.28 93.7815L150.671 92.1915C149.777 92.8325 149.168 93.1822 148.803 93.1822C148.315 93.1822 147.949 92.5911 147.949 91.5422C147.949 90.9927 148.071 90.3434 148.234 89.4943L152.052 71.2049H151.28L147.259 73.3526ZM144.253 78.6305L142.507 87.255C141.694 91.2923 140.11 93.1822 138.039 93.1822C136.658 93.1822 135.683 91.8918 135.683 89.4442C135.683 86.8053 136.414 82.8179 137.795 79.5297C139.379 75.7917 141.451 73.852 142.913 73.852C144.091 73.852 144.578 74.5431 144.578 76.1414C144.578 76.7409 144.456 77.59 144.253 78.6305ZM158.876 96.129C162.085 83.7253 164.725 77.4984 166.147 77.4984C166.756 77.4984 167.243 79.1882 168.868 79.1882C170.899 79.1882 172.321 77.3984 172.321 74.7512C172.321 72.5535 171.021 71.055 169.193 71.055C166.675 71.055 164.4 74.2517 161.922 80.5869C162.288 78.0395 162.288 75.9 162.288 74.2017C162.288 73.3028 162.288 72.2538 162.247 71.2049H161.435C159.242 72.6535 156.967 73.4526 154.286 73.7523C154.286 73.9021 154.286 74.0519 154.286 74.2017C154.286 75.2507 154.53 75.8502 155.098 76.1498C155.708 76.4495 156.52 76.3497 156.52 78.589C156.52 80.2372 155.302 86.0644 152.986 96.129H158.876ZM182.841 65.1111L178.413 65.6106C177.804 65.6606 177.723 66.1101 177.561 66.7596L177.195 68.4079C176.667 70.8552 175.976 70.9052 174.595 71.8541C174.067 72.2038 173.742 73.0032 173.742 74.1519H175.57L172.118 89.8355C171.874 90.9845 171.752 91.8834 171.752 92.6327C171.752 95.0303 173.336 96.7283 176.017 96.7283C178.17 96.7283 180.201 95.6295 182.354 93.3818L181.622 91.8336C180.566 92.6327 179.754 93.0822 179.266 93.0822C178.535 93.0822 178.17 92.6327 178.17 91.6338C178.17 91.1841 178.251 90.435 178.454 89.486L181.907 74.1519H186.05L186.497 71.6045H182.597L183.613 66.6596C183.694 66.2101 183.816 65.8104 183.816 65.5608C183.816 65.2112 183.572 65.0614 183.41 65.0614C183.369 65.0614 183.166 65.0614 182.841 65.1111ZM186.456 85.3153C186.456 92.2913 190.193 96.6785 196.408 96.6785C203.841 96.6785 208.796 90.593 208.796 82.4183C208.796 75.4921 204.937 71.055 198.52 71.055C191.411 71.055 186.456 77.4402 186.456 85.3153ZM192.63 88.5536C192.63 85.0157 193.889 80.179 195.798 76.8407C197.017 74.743 198.479 73.6525 199.738 73.6525C201.566 73.6525 202.622 75.4921 202.622 79.08C202.622 82.5181 201.647 86.6554 199.901 90.1435C198.56 92.8408 197.017 94.1811 195.514 94.1811C193.564 94.1811 192.63 92.2913 192.63 88.5536ZM198.763 68.3578L205.303 63.8626C206.197 63.263 206.643 62.514 206.643 61.6148C206.643 60.4661 205.872 59.5171 205.019 59.5171C204.288 59.5171 203.556 60.0166 202.785 60.9155L196.651 68.3578H198.763ZM216.108 96.129C219.316 83.7253 221.957 77.4984 223.378 77.4984C223.988 77.4984 224.475 79.1882 226.1 79.1882C228.131 79.1882 229.552 77.3984 229.552 74.7512C229.552 72.5535 228.253 71.055 226.425 71.055C223.906 71.055 221.632 74.2517 219.154 80.5869C219.52 78.0395 219.52 75.9 219.52 74.2017C219.52 73.3028 219.52 72.2538 219.479 71.2049H218.667C216.473 72.6535 214.199 73.4526 211.518 73.7523C211.518 73.9021 211.518 74.0519 211.518 74.2017C211.518 75.2507 211.761 75.8502 212.33 76.1498C212.939 76.4495 213.752 76.3497 213.752 78.589C213.752 80.2372 212.533 86.0644 210.218 96.129H216.108ZM234.751 64.7617C234.751 67.3089 236.417 69.4068 238.407 69.4068C240.398 69.4068 242.063 67.3089 242.063 64.7617C242.063 62.1643 240.398 60.1664 238.407 60.1664C236.417 60.1664 234.751 62.1643 234.751 64.7617ZM231.868 78.6472L229.349 89.8355C229.065 91.0342 228.984 91.9334 228.984 92.4329C228.984 95.0801 230.486 96.7283 233.208 96.7283C235.32 96.7283 237.229 95.7294 238.732 93.7815L238.123 92.183C237.31 92.7825 236.742 93.1322 236.336 93.1322C235.848 93.1322 235.361 92.5827 235.361 91.7836C235.361 91.2841 235.523 90.3349 235.807 88.9863L239.788 70.9052C236.782 71.6546 234.02 72.154 231.583 72.154C231.461 72.154 231.34 72.154 231.218 72.154C230.974 72.8531 230.852 73.3028 230.852 73.6024C230.852 74.3017 232.355 74.7012 232.355 75.9C232.355 76.7991 232.111 77.6482 231.868 78.6472ZM241.454 85.3153C241.454 92.2913 245.191 96.6785 251.405 96.6785C258.838 96.6785 263.794 90.593 263.794 82.4183C263.794 75.4921 259.935 71.055 253.517 71.055C246.409 71.055 241.454 77.4402 241.454 85.3153ZM247.628 88.5536C247.628 85.0157 248.887 80.179 250.796 76.8407C252.014 74.743 253.477 73.6525 254.736 73.6525C256.564 73.6525 257.62 75.4921 257.62 79.08C257.62 82.5181 256.645 86.6554 254.898 90.1435C253.558 92.8408 252.014 94.1811 250.512 94.1811C248.562 94.1811 247.628 92.2913 247.628 88.5536ZM281.95 60.8657C281.829 61.3652 281.747 61.7646 281.747 62.1643C281.747 63.8126 283.494 63.8626 283.494 65.0614C283.494 65.7607 283.372 66.5097 283.169 67.4089L279.676 84.0916C279.351 85.5901 279.229 86.8886 279.229 87.9874C279.229 93.1822 282.803 96.7283 289.018 96.7283C295.152 96.7283 299.01 93.4818 300.269 87.3881L304.494 67.1093C304.859 65.2612 305.144 64.362 306.403 63.8125C307.5 63.3131 307.906 62.564 307.946 60.8657H300.513C300.391 61.3652 300.351 61.7646 300.351 62.1643C300.351 63.8126 302.097 63.8626 302.097 65.0614C302.097 65.7107 301.975 66.5097 301.772 67.4089L298.198 84.1414C297.629 86.8386 297.264 89.1862 295.72 90.9845C294.339 92.6327 292.308 93.5816 289.952 93.5816C287.19 93.5816 285.728 91.9334 285.728 88.9863C285.728 88.2372 285.85 87.1883 286.134 85.8397L290.115 67.1093C290.48 65.311 290.724 64.362 292.024 63.8125C293.121 63.3131 293.486 62.564 293.527 60.8657H281.95ZM294.786 57.619L301.326 53.1238C302.219 52.5242 302.666 51.7752 302.666 50.876C302.666 49.7272 301.894 48.7783 301.041 48.7783C300.31 48.7783 299.579 49.2778 298.807 50.1767L292.674 57.619H294.786ZM310.302 96.129L314.445 78.0479C316.314 75.5503 318.02 74.3515 319.279 74.3515C320.173 74.3515 320.945 75.2006 320.945 76.2496C320.945 77.0987 320.66 78.1477 320.376 79.4463L318.548 87.5379C318.101 89.486 317.736 91.0342 317.736 92.3331C317.736 95.1801 319.157 96.7283 321.838 96.7283C323.706 96.7283 325.453 95.7293 327.119 93.8315L326.55 92.283C325.738 93.0321 325.128 93.332 324.763 93.332C324.316 93.332 323.91 92.7325 323.91 92.1332C323.91 91.9834 323.991 91.5337 324.153 90.7846L326.712 79.4463C327.078 77.8979 327.281 76.8491 327.281 76.2496C327.281 73.2027 325.25 71.055 322.163 71.055C319.766 71.055 317.573 72.154 315.258 74.3515L315.948 71.055C312.577 71.6546 309.856 72.154 307.703 72.154C307.581 72.154 307.5 72.154 307.378 72.154C307.134 72.8531 307.012 73.3028 307.012 73.6024C307.012 74.3017 308.515 74.7012 308.515 75.9C308.515 76.7491 308.271 77.5982 308.028 78.6472L304.088 96.129H310.302ZM336.014 64.7617C336.014 67.3089 337.679 69.4068 339.669 69.4068C341.66 69.4068 343.325 67.3089 343.325 64.7617C343.325 62.1643 341.66 60.1664 339.669 60.1664C337.679 60.1664 336.014 62.1643 336.014 64.7617ZM333.13 78.6472L330.612 89.8355C330.327 91.0342 330.246 91.9334 330.246 92.4329C330.246 95.0801 331.749 96.7283 334.47 96.7283C336.583 96.7283 338.492 95.7294 339.995 93.7815L339.385 92.183C338.573 92.7825 338.004 93.1322 337.598 93.1322C337.111 93.1322 336.623 92.5827 336.623 91.7836C336.623 91.2841 336.786 90.3349 337.07 88.9863L341.051 70.9052C338.045 71.6546 335.283 72.154 332.846 72.154C332.724 72.154 332.602 72.154 332.48 72.154C332.236 72.8531 332.115 73.3028 332.115 73.6024C332.115 74.3017 333.617 74.7012 333.617 75.9C333.617 76.7991 333.374 77.6482 333.13 78.6472ZM357.989 90.1936C356.201 92.5411 354.333 93.6817 352.708 93.6817C350.19 93.6817 348.89 91.4421 348.89 87.0051C348.89 79.6295 352.952 73.5524 355.186 73.5524C355.552 73.5524 355.836 73.9021 355.836 74.1435C355.836 74.4931 355.348 75.1424 355.348 76.2912C355.348 78.4807 356.445 79.8293 358.232 79.8293C360.06 79.8293 361.319 78.2308 361.319 76.0916C361.319 73.2528 359.248 71.055 355.958 71.055C352.627 71.055 349.012 72.8531 346.575 75.7917C344.057 78.8304 342.554 83.1676 342.554 87.4048C342.554 92.9906 345.762 96.7783 350.677 96.7783C354.13 96.7783 356.608 95.2299 359.248 91.742L357.989 90.1936ZM362.66 85.3153C362.66 92.2913 366.397 96.6785 372.611 96.6785C380.044 96.6785 385 90.593 385 82.4183C385 75.4921 381.141 71.055 374.723 71.055C367.615 71.055 362.66 77.4402 362.66 85.3153ZM368.834 88.5536C368.834 85.0157 370.093 80.179 372.002 76.8407C373.221 74.743 374.683 73.6525 375.942 73.6525C377.77 73.6525 378.826 75.4921 378.826 79.08C378.826 82.5181 377.851 86.6554 376.105 90.1435C374.764 92.8408 373.221 94.1811 371.718 94.1811C369.768 94.1811 368.834 92.2913 368.834 88.5536Z" fill="#4F4F4F"/>
</svg>
