<svg width="358" height="92" viewBox="0 0 358 92" fill="none" xmlns="http://www.w3.org/2000/svg">
<path d="M11.8748 3.7796C12.9948 3.7796 13.9468 3.93827 14.7308 4.2556C15.5148 4.57294 16.2801 5.02094 17.0268 5.59961C17.2321 5.76761 17.4095 5.85161 17.5588 5.85161C17.9321 5.85161 18.1748 5.29161 18.2868 4.17161H18.9308C18.8561 5.44094 18.8188 7.6996 18.8188 10.9476H18.1748C18.0068 9.56627 17.7828 8.5116 17.5028 7.7836C17.2228 7.0556 16.7468 6.42094 16.0748 5.87961C15.6081 5.43161 15.0668 5.09561 14.4508 4.8716C13.8348 4.62894 13.1908 4.5076 12.5188 4.5076C10.6335 4.5076 9.23346 5.4316 8.31879 7.27961C7.40412 9.10894 6.94679 11.3956 6.94679 14.1396C6.94679 16.8649 7.42279 19.1423 8.37479 20.9716C9.32679 22.8009 10.7455 23.7156 12.6308 23.7156C13.2655 23.7156 13.8908 23.6036 14.5068 23.3796C15.1415 23.1369 15.6735 22.7916 16.1028 22.3436C16.7935 21.8209 17.2695 21.1676 17.5308 20.3836C17.8108 19.5996 18.0255 18.4516 18.1748 16.9396H18.8188C18.8188 20.3183 18.8561 22.6703 18.9308 23.9956H18.2868C18.2308 23.3983 18.1468 22.9783 18.0348 22.7356C17.9415 22.4743 17.8015 22.3436 17.6148 22.3436C17.4655 22.3436 17.2695 22.4183 17.0268 22.5676C16.1868 23.1649 15.3841 23.6223 14.6188 23.9396C13.8535 24.2383 12.9295 24.3876 11.8468 24.3876C9.86812 24.3876 8.13212 23.9863 6.63879 23.1836C5.16412 22.3809 4.01612 21.2236 3.19479 19.7116C2.37346 18.1809 1.96279 16.3609 1.96279 14.2516C1.96279 12.1983 2.38279 10.3783 3.22279 8.7916C4.06279 7.20494 5.22946 5.97294 6.72279 5.09561C8.23479 4.21827 9.95212 3.7796 11.8748 3.7796ZM26.369 24.1916C25.1743 24.1916 24.2783 23.8836 23.681 23.2676C23.1023 22.6516 22.813 21.8396 22.813 20.8316C22.813 19.9916 23.0276 19.3009 23.457 18.7596C23.905 18.1996 24.437 17.7703 25.053 17.4716C25.6876 17.1729 26.4903 16.8556 27.461 16.5196C28.4876 16.1649 29.2343 15.8476 29.701 15.5676C30.1863 15.2689 30.429 14.8676 30.429 14.3636V12.1796C30.429 11.3956 30.2423 10.7889 29.869 10.3596C29.5143 9.9116 28.9543 9.6876 28.189 9.6876C27.293 9.6876 26.6116 9.9116 26.145 10.3596C26.6676 10.5463 27.069 10.8263 27.349 11.1996C27.6476 11.5729 27.797 12.0116 27.797 12.5156C27.797 13.1503 27.5823 13.6543 27.153 14.0276C26.7236 14.4009 26.201 14.5876 25.585 14.5876C24.9316 14.5876 24.4276 14.3823 24.073 13.9716C23.7183 13.5609 23.541 13.0476 23.541 12.4316C23.541 11.9089 23.6623 11.4703 23.905 11.1156C24.1663 10.7423 24.5583 10.3969 25.081 10.0796C25.585 9.78094 26.201 9.54761 26.929 9.37961C27.6756 9.2116 28.4876 9.1276 29.365 9.1276C30.2796 9.1276 31.073 9.22094 31.745 9.4076C32.417 9.59427 32.977 9.9116 33.425 10.3596C33.8356 10.7703 34.1063 11.2743 34.237 11.8716C34.3863 12.4689 34.461 13.2809 34.461 14.3076V21.9236C34.461 22.3716 34.4983 22.6889 34.573 22.8756C34.6663 23.0623 34.8343 23.1556 35.077 23.1556C35.357 23.1556 35.693 22.9969 36.085 22.6796L36.365 23.1556C35.525 23.8463 34.4983 24.1916 33.285 24.1916C32.2583 24.1916 31.5396 23.9863 31.129 23.5756C30.7183 23.1649 30.5036 22.6143 30.485 21.9236C29.5516 23.4356 28.1796 24.1916 26.369 24.1916ZM28.525 22.3996C29.253 22.3996 29.8876 22.0169 30.429 21.2516V15.5116C30.205 15.8849 29.729 16.2956 29.001 16.7436C28.273 17.2103 27.7223 17.6769 27.349 18.1436C26.9756 18.6103 26.789 19.2823 26.789 20.1596C26.789 20.9249 26.9476 21.4943 27.265 21.8676C27.5823 22.2223 28.0023 22.3996 28.525 22.3996ZM48.2972 9.1276C49.1372 9.1276 49.7718 9.37961 50.2012 9.88361C50.6305 10.3876 50.8452 10.9943 50.8452 11.7036C50.8452 12.3943 50.6398 12.9636 50.2292 13.4116C49.8372 13.8409 49.3145 14.0556 48.6612 14.0556C48.0265 14.0556 47.5225 13.8969 47.1492 13.5796C46.7758 13.2436 46.5892 12.8049 46.5892 12.2636C46.5892 11.3676 46.9998 10.6396 47.8212 10.0796C47.7465 10.0609 47.6345 10.0516 47.4852 10.0516C47.2985 10.0516 47.1492 10.0703 47.0372 10.1076C46.3278 10.2196 45.7212 10.6489 45.2172 11.3956C44.7318 12.1423 44.4892 12.9076 44.4892 13.6916V21.1116C44.4892 21.9703 44.6945 22.5676 45.1052 22.9036C45.5345 23.2396 46.2065 23.4076 47.1212 23.4076V23.9956C46.8598 23.9956 46.6452 23.9863 46.4772 23.9676C44.5732 23.9116 43.3038 23.8836 42.6692 23.8836C42.1652 23.8836 41.0172 23.9116 39.2252 23.9676C39.0758 23.9863 38.8892 23.9956 38.6652 23.9956V23.4076C39.3372 23.4076 39.8038 23.2676 40.0652 22.9876C40.3265 22.6889 40.4572 22.1569 40.4572 21.3916V12.5716C40.4572 11.7129 40.3265 11.0876 40.0652 10.6956C39.8038 10.3036 39.3372 10.1076 38.6652 10.1076V9.5196C39.2625 9.57561 39.8412 9.60361 40.4012 9.60361C42.0625 9.60361 43.4252 9.47294 44.4892 9.21161V11.8156C44.8438 11.0129 45.3572 10.3689 46.0292 9.88361C46.7012 9.37961 47.4572 9.1276 48.2972 9.1276ZM58.9195 9.5196H62.2235V10.0796H58.9195V21.3916C58.9195 21.9516 59.0128 22.3529 59.1995 22.5956C59.4048 22.8196 59.7221 22.9316 60.1515 22.9316C60.9541 22.9316 61.5888 22.3716 62.0555 21.2516L62.5315 21.5036C61.8221 23.4263 60.5435 24.3876 58.6955 24.3876C57.4635 24.3876 56.5301 24.0703 55.8955 23.4356C55.5035 23.0436 55.2328 22.5583 55.0835 21.9796C54.9528 21.3823 54.8875 20.5703 54.8875 19.5436V10.0796H52.5355V9.5196H54.8875V5.8236C56.4368 5.8236 57.7808 5.52494 58.9195 4.9276V9.5196ZM71.6939 9.1276C73.8405 9.1276 75.5205 9.7436 76.7339 10.9756C77.9472 12.1889 78.5539 14.1209 78.5539 16.7716C78.5539 19.4223 77.9472 21.3543 76.7339 22.5676C75.5205 23.7809 73.8405 24.3876 71.6939 24.3876C69.5659 24.3876 67.8859 23.7809 66.6539 22.5676C65.4405 21.3543 64.8339 19.4223 64.8339 16.7716C64.8339 14.1209 65.4405 12.1889 66.6539 10.9756C67.8859 9.7436 69.5659 9.1276 71.6939 9.1276ZM71.6939 9.6876C70.8912 9.6876 70.2472 10.2756 69.7619 11.4516C69.2952 12.6089 69.0619 14.3823 69.0619 16.7716C69.0619 19.1609 69.2952 20.9343 69.7619 22.0916C70.2472 23.2489 70.8912 23.8276 71.6939 23.8276C72.5152 23.8276 73.1592 23.2583 73.6259 22.1196C74.0925 20.9623 74.3259 19.1796 74.3259 16.7716C74.3259 14.3636 74.0832 12.5809 73.5979 11.4236C73.1312 10.2663 72.4965 9.6876 71.6939 9.6876ZM74.8019 1.1196C75.1379 1.36227 75.3059 1.71694 75.3059 2.1836C75.3059 2.5756 75.1659 2.95827 74.8859 3.3316C74.6805 3.57427 74.4192 3.82627 74.1019 4.0876C73.8032 4.33027 73.4765 4.58227 73.1219 4.84361C72.0019 5.6276 71.0125 6.42094 70.1539 7.2236L69.8459 6.9716C70.3499 6.05694 70.8725 4.90894 71.4139 3.52761C71.6565 2.94894 71.8432 2.5196 71.9739 2.23961C72.1232 1.94094 72.3005 1.67027 72.5059 1.4276C72.8605 0.979604 73.2992 0.755604 73.8219 0.755604C74.2139 0.755604 74.5405 0.876938 74.8019 1.1196ZM91.4339 9.1276C92.2739 9.1276 92.9085 9.37961 93.3379 9.88361C93.7672 10.3876 93.9819 10.9943 93.9819 11.7036C93.9819 12.3943 93.7765 12.9636 93.3659 13.4116C92.9739 13.8409 92.4512 14.0556 91.7979 14.0556C91.1632 14.0556 90.6592 13.8969 90.2859 13.5796C89.9125 13.2436 89.7259 12.8049 89.7259 12.2636C89.7259 11.3676 90.1365 10.6396 90.9579 10.0796C90.8832 10.0609 90.7712 10.0516 90.6219 10.0516C90.4352 10.0516 90.2859 10.0703 90.1739 10.1076C89.4646 10.2196 88.8579 10.6489 88.3539 11.3956C87.8685 12.1423 87.6259 12.9076 87.6259 13.6916V21.1116C87.6259 21.9703 87.8312 22.5676 88.2419 22.9036C88.6712 23.2396 89.3432 23.4076 90.2579 23.4076V23.9956C89.9965 23.9956 89.7819 23.9863 89.6139 23.9676C87.7099 23.9116 86.4405 23.8836 85.8059 23.8836C85.3019 23.8836 84.1539 23.9116 82.3619 23.9676C82.2125 23.9863 82.0259 23.9956 81.8019 23.9956V23.4076C82.4739 23.4076 82.9405 23.2676 83.2019 22.9876C83.4632 22.6889 83.5939 22.1569 83.5939 21.3916V12.5716C83.5939 11.7129 83.4632 11.0876 83.2019 10.6956C82.9405 10.3036 82.4739 10.1076 81.8019 10.1076V9.5196C82.3992 9.57561 82.9779 9.60361 83.5379 9.60361C85.1992 9.60361 86.5619 9.47294 87.6259 9.21161V11.8156C87.9805 11.0129 88.4939 10.3689 89.1659 9.88361C89.8379 9.37961 90.5939 9.1276 91.4339 9.1276ZM100.012 2.2956C100.796 2.2956 101.412 2.4916 101.86 2.88361C102.327 3.25694 102.56 3.7796 102.56 4.45161C102.56 5.1236 102.327 5.6556 101.86 6.0476C101.412 6.42094 100.796 6.6076 100.012 6.6076C99.2282 6.6076 98.6029 6.42094 98.1362 6.0476C97.6882 5.6556 97.4642 5.1236 97.4642 4.45161C97.4642 3.7796 97.6882 3.25694 98.1362 2.88361C98.6029 2.4916 99.2282 2.2956 100.012 2.2956ZM102.196 21.3916C102.196 22.1569 102.327 22.6889 102.588 22.9876C102.868 23.2676 103.335 23.4076 103.988 23.4076V23.9956C102.122 23.9209 100.88 23.8836 100.264 23.8836C99.6855 23.8836 98.3882 23.9209 96.3722 23.9956V23.4076C97.0442 23.4076 97.5109 23.2676 97.7722 22.9876C98.0335 22.6889 98.1642 22.1569 98.1642 21.3916V12.5716C98.1642 11.7129 98.0335 11.0876 97.7722 10.6956C97.5109 10.3036 97.0442 10.1076 96.3722 10.1076V9.5196C96.9695 9.57561 97.5482 9.60361 98.1082 9.60361C99.7695 9.60361 101.132 9.47294 102.196 9.21161V21.3916ZM113.928 9.1276C116.075 9.1276 117.755 9.7436 118.968 10.9756C120.182 12.1889 120.788 14.1209 120.788 16.7716C120.788 19.4223 120.182 21.3543 118.968 22.5676C117.755 23.7809 116.075 24.3876 113.928 24.3876C111.8 24.3876 110.12 23.7809 108.888 22.5676C107.675 21.3543 107.068 19.4223 107.068 16.7716C107.068 14.1209 107.675 12.1889 108.888 10.9756C110.12 9.7436 111.8 9.1276 113.928 9.1276ZM113.928 9.6876C113.126 9.6876 112.482 10.2756 111.996 11.4516C111.53 12.6089 111.296 14.3823 111.296 16.7716C111.296 19.1609 111.53 20.9343 111.996 22.0916C112.482 23.2489 113.126 23.8276 113.928 23.8276C114.75 23.8276 115.394 23.2583 115.86 22.1196C116.327 20.9623 116.56 19.1796 116.56 16.7716C116.56 14.3636 116.318 12.5809 115.832 11.4236C115.366 10.2663 114.731 9.6876 113.928 9.6876Z" fill="#29417D"/>
<path d="M17.2228 33.2858C23.4628 33.2858 28.1348 34.7098 31.2388 37.5578C34.3428 40.3738 35.8948 44.4858 35.8948 49.8938C35.8948 53.3818 35.1268 56.4378 33.5908 59.0618C32.0868 61.6538 29.8948 63.6698 27.0148 65.1098C24.1668 66.5498 20.7588 67.2698 16.7908 67.2698L13.8148 67.2218C11.9588 67.1578 10.6148 67.1258 9.78279 67.1258C6.48679 67.1258 4.02279 67.1738 2.39079 67.2698V66.3098C3.44679 66.2458 4.21479 66.1178 4.69479 65.9258C5.20679 65.7338 5.54279 65.3658 5.70279 64.8218C5.89479 64.2778 5.99079 63.3978 5.99079 62.1818V38.3738C5.99079 37.1578 5.89479 36.2778 5.70279 35.7338C5.54279 35.1898 5.20679 34.8218 4.69479 34.6298C4.21479 34.4378 3.44679 34.3098 2.39079 34.2458V33.2858C3.73479 33.3818 5.67079 33.4298 8.19879 33.4298H9.68679L11.6068 33.3818C14.2308 33.3178 16.1028 33.2858 17.2228 33.2858ZM17.1748 34.1498C16.1828 34.1498 15.4308 34.2618 14.9188 34.4858C14.4388 34.7098 14.1028 35.1098 13.9108 35.6858C13.7188 36.2618 13.6228 37.1258 13.6228 38.2778V62.2778C13.6228 63.4298 13.7188 64.2938 13.9108 64.8698C14.1028 65.4458 14.4388 65.8458 14.9188 66.0698C15.4308 66.2938 16.1988 66.4058 17.2228 66.4058C21.0948 66.4058 23.8468 65.0618 25.4788 62.3738C27.1108 59.6538 27.9268 55.5578 27.9268 50.0858C27.9268 44.6138 27.0788 40.5978 25.3828 38.0378C23.7188 35.4458 20.9828 34.1498 17.1748 34.1498ZM46.9164 30.0698C48.2604 30.0698 49.3164 30.4058 50.0844 31.0778C50.8844 31.7178 51.2844 32.6138 51.2844 33.7658C51.2844 34.9178 50.8844 35.8298 50.0844 36.5018C49.3164 37.1418 48.2604 37.4618 46.9164 37.4618C45.5724 37.4618 44.5004 37.1418 43.7004 36.5018C42.9324 35.8298 42.5484 34.9178 42.5484 33.7658C42.5484 32.6138 42.9324 31.7178 43.7004 31.0778C44.5004 30.4058 45.5724 30.0698 46.9164 30.0698ZM50.6604 62.8058C50.6604 64.1178 50.8844 65.0298 51.3324 65.5418C51.8124 66.0218 52.6124 66.2618 53.7324 66.2618V67.2698C50.5324 67.1418 48.4044 67.0778 47.3484 67.0778C46.3564 67.0778 44.1324 67.1418 40.6764 67.2698V66.2618C41.8284 66.2618 42.6284 66.0218 43.0764 65.5418C43.5244 65.0298 43.7484 64.1178 43.7484 62.8058V47.6858C43.7484 46.2138 43.5244 45.1418 43.0764 44.4698C42.6284 43.7978 41.8284 43.4618 40.6764 43.4618V42.4538C41.7004 42.5498 42.6924 42.5978 43.6524 42.5978C46.5004 42.5978 48.8364 42.3738 50.6604 41.9258V62.8058ZM75.173 41.7818C77.605 41.7818 79.365 42.4058 80.453 43.6538C80.997 44.2618 81.381 45.0458 81.605 46.0058C81.829 46.9658 81.941 48.2618 81.941 49.8938V62.8058C81.941 64.1178 82.165 65.0298 82.613 65.5418C83.093 66.0218 83.893 66.2618 85.013 66.2618V67.2698C81.813 67.1418 79.701 67.0778 78.677 67.0778C77.717 67.0778 75.637 67.1418 72.437 67.2698V66.2618C73.397 66.2618 74.069 66.0218 74.453 65.5418C74.837 65.0298 75.029 64.1178 75.029 62.8058V47.8778C75.029 46.5658 74.805 45.5738 74.357 44.9018C73.941 44.2298 73.173 43.8938 72.053 43.8938C70.741 43.8938 69.621 44.4378 68.693 45.5258C67.765 46.5818 67.301 47.8938 67.301 49.4618V62.8058C67.301 64.1178 67.493 65.0298 67.877 65.5418C68.261 66.0218 68.933 66.2618 69.893 66.2618V67.2698C66.949 67.1418 64.965 67.0778 63.941 67.0778C62.981 67.0778 60.773 67.1418 57.317 67.2698V66.2618C58.469 66.2618 59.269 66.0218 59.717 65.5418C60.165 65.0298 60.389 64.1178 60.389 62.8058V47.6858C60.389 46.2138 60.165 45.1418 59.717 44.4698C59.269 43.7978 58.469 43.4618 57.317 43.4618V42.4538C58.341 42.5498 59.333 42.5978 60.293 42.5978C63.141 42.5978 65.477 42.3738 67.301 41.9258V46.2458C68.741 43.2698 71.365 41.7818 75.173 41.7818ZM94.5414 30.0698C95.8854 30.0698 96.9414 30.4058 97.7094 31.0778C98.5094 31.7178 98.9094 32.6138 98.9094 33.7658C98.9094 34.9178 98.5094 35.8298 97.7094 36.5018C96.9414 37.1418 95.8854 37.4618 94.5414 37.4618C93.1974 37.4618 92.1254 37.1418 91.3254 36.5018C90.5574 35.8298 90.1734 34.9178 90.1734 33.7658C90.1734 32.6138 90.5574 31.7178 91.3254 31.0778C92.1254 30.4058 93.1974 30.0698 94.5414 30.0698ZM98.2854 62.8058C98.2854 64.1178 98.5094 65.0298 98.9574 65.5418C99.4374 66.0218 100.237 66.2618 101.357 66.2618V67.2698C98.1574 67.1418 96.0294 67.0778 94.9734 67.0778C93.9814 67.0778 91.7574 67.1418 88.3014 67.2698V66.2618C89.4534 66.2618 90.2534 66.0218 90.7014 65.5418C91.1494 65.0298 91.3734 64.1178 91.3734 62.8058V47.6858C91.3734 46.2138 91.1494 45.1418 90.7014 44.4698C90.2534 43.7978 89.4534 43.4618 88.3014 43.4618V42.4538C89.3254 42.5498 90.3174 42.5978 91.2774 42.5978C94.1254 42.5978 96.4614 42.3738 98.2854 41.9258V62.8058ZM113.102 66.5498H115.598C117.646 66.5498 119.374 65.8778 120.782 64.5338C122.19 63.1578 123.022 60.9658 123.278 57.9578H124.286C124.286 62.5018 124.35 65.6698 124.478 67.4618C121.886 67.3338 118.814 67.2698 115.262 67.2698C112.126 67.2698 108.798 67.3498 105.278 67.5098L117.278 43.1738H114.59C110.014 43.1738 107.518 46.0378 107.102 51.7658H106.094C106.094 47.2218 106.03 44.0538 105.902 42.2618C108.494 42.3898 111.566 42.4538 115.118 42.4538C118.254 42.4538 121.582 42.3738 125.102 42.2138L113.102 66.5498ZM168.04 33.2858C167.816 36.0058 167.704 38.4378 167.704 40.5818C167.704 42.0858 167.752 43.3018 167.848 44.2298H166.744C166.104 40.6138 165.144 38.0698 163.864 36.5978C162.584 35.1258 160.792 34.3898 158.488 34.3898H156.904C155.912 34.3898 155.192 34.4698 154.744 34.6298C154.296 34.7898 153.992 35.1098 153.832 35.5898C153.672 36.0378 153.592 36.7738 153.592 37.7978V49.8938H155.272C156.968 49.8938 158.248 49.2698 159.112 48.0218C160.008 46.7738 160.632 45.2858 160.984 43.5578H162.088C161.992 44.9018 161.944 46.4058 161.944 48.0698V50.3738C161.944 52.0058 162.04 54.2778 162.232 57.1898H161.128C160.456 52.9658 158.504 50.8538 155.272 50.8538H153.592V61.8938C153.592 63.1738 153.72 64.1178 153.976 64.7258C154.264 65.3018 154.744 65.6858 155.416 65.8778C156.12 66.0698 157.224 66.1818 158.728 66.2138V67.2698C154.792 67.1738 151.864 67.1258 149.944 67.1258C148.344 67.1258 146.328 67.1578 143.896 67.2218L142.36 67.2698V66.3098C143.416 66.2458 144.184 66.1178 144.664 65.9258C145.176 65.7338 145.512 65.3658 145.672 64.8218C145.864 64.2778 145.96 63.3978 145.96 62.1818V38.3738C145.96 37.1578 145.864 36.2778 145.672 35.7338C145.512 35.1898 145.176 34.8218 144.664 34.6298C144.184 34.4378 143.416 34.3098 142.36 34.2458V33.2858C145.816 33.3818 151.032 33.4298 158.008 33.4298C162.712 33.4298 166.056 33.3818 168.04 33.2858ZM184.679 64.0058C187.303 64.0058 189.415 62.7258 191.015 60.1658L191.879 60.4538C191.239 62.5338 190.087 64.3098 188.423 65.7818C186.791 67.2218 184.743 67.9418 182.279 67.9418C178.887 67.9418 176.183 66.8698 174.167 64.7258C172.183 62.5498 171.191 59.3498 171.191 55.1258C171.191 50.8058 172.263 47.5098 174.407 45.2378C176.551 42.9338 179.399 41.7818 182.951 41.7818C188.967 41.7818 191.975 45.3338 191.975 52.4378H178.487C178.455 52.9178 178.439 53.6698 178.439 54.6938C178.439 56.8058 178.727 58.5658 179.303 59.9738C179.911 61.3818 180.679 62.4058 181.607 63.0458C182.567 63.6858 183.591 64.0058 184.679 64.0058ZM182.663 42.7898C181.511 42.7898 180.551 43.5098 179.783 44.9498C179.047 46.3578 178.583 48.5498 178.391 51.5258H185.927C185.991 48.9978 185.735 46.9178 185.159 45.2858C184.615 43.6218 183.783 42.7898 182.663 42.7898ZM212.485 41.7818C213.925 41.7818 215.013 42.2138 215.749 43.0778C216.485 43.9418 216.853 44.9818 216.853 46.1978C216.853 47.3818 216.501 48.3578 215.797 49.1258C215.125 49.8618 214.229 50.2298 213.109 50.2298C212.021 50.2298 211.157 49.9578 210.517 49.4138C209.877 48.8378 209.557 48.0858 209.557 47.1578C209.557 45.6218 210.261 44.3738 211.669 43.4138C211.541 43.3818 211.349 43.3658 211.093 43.3658C210.773 43.3658 210.517 43.3978 210.325 43.4618C209.109 43.6538 208.069 44.3898 207.205 45.6698C206.373 46.9498 205.957 48.2618 205.957 49.6058V62.3258C205.957 63.7978 206.309 64.8218 207.013 65.3978C207.749 65.9738 208.901 66.2618 210.469 66.2618V67.2698C210.021 67.2698 209.653 67.2538 209.365 67.2218C206.101 67.1258 203.925 67.0778 202.837 67.0778C201.973 67.0778 200.005 67.1258 196.933 67.2218C196.677 67.2538 196.357 67.2698 195.973 67.2698V66.2618C197.125 66.2618 197.925 66.0218 198.373 65.5418C198.821 65.0298 199.045 64.1178 199.045 62.8058V47.6858C199.045 46.2138 198.821 45.1418 198.373 44.4698C197.925 43.7978 197.125 43.4618 195.973 43.4618V42.4538C196.997 42.5498 197.989 42.5978 198.949 42.5978C201.797 42.5978 204.133 42.3738 205.957 41.9258V46.3898C206.565 45.0138 207.445 43.9098 208.597 43.0778C209.749 42.2138 211.045 41.7818 212.485 41.7818ZM236.392 41.7818C237.832 41.7818 238.92 42.2138 239.656 43.0778C240.392 43.9418 240.76 44.9818 240.76 46.1978C240.76 47.3818 240.408 48.3578 239.704 49.1258C239.032 49.8618 238.136 50.2298 237.016 50.2298C235.928 50.2298 235.064 49.9578 234.424 49.4138C233.784 48.8378 233.464 48.0858 233.464 47.1578C233.464 45.6218 234.168 44.3738 235.576 43.4138C235.448 43.3818 235.256 43.3658 235 43.3658C234.68 43.3658 234.424 43.3978 234.232 43.4618C233.016 43.6538 231.976 44.3898 231.112 45.6698C230.28 46.9498 229.864 48.2618 229.864 49.6058V62.3258C229.864 63.7978 230.216 64.8218 230.92 65.3978C231.656 65.9738 232.808 66.2618 234.376 66.2618V67.2698C233.928 67.2698 233.56 67.2538 233.272 67.2218C230.008 67.1258 227.832 67.0778 226.744 67.0778C225.88 67.0778 223.912 67.1258 220.84 67.2218C220.584 67.2538 220.264 67.2698 219.88 67.2698V66.2618C221.032 66.2618 221.832 66.0218 222.28 65.5418C222.728 65.0298 222.952 64.1178 222.952 62.8058V47.6858C222.952 46.2138 222.728 45.1418 222.28 44.4698C221.832 43.7978 221.032 43.4618 219.88 43.4618V42.4538C220.904 42.5498 221.896 42.5978 222.856 42.5978C225.704 42.5978 228.04 42.3738 229.864 41.9258V46.3898C230.472 45.0138 231.352 43.9098 232.504 43.0778C233.656 42.2138 234.952 41.7818 236.392 41.7818ZM250.122 67.6058C248.074 67.6058 246.538 67.0778 245.514 66.0218C244.522 64.9658 244.026 63.5738 244.026 61.8458C244.026 60.4058 244.394 59.2218 245.13 58.2938C245.898 57.3338 246.81 56.5978 247.866 56.0858C248.954 55.5738 250.33 55.0298 251.994 54.4538C253.754 53.8458 255.034 53.3018 255.834 52.8218C256.666 52.3098 257.082 51.6218 257.082 50.7578V47.0138C257.082 45.6698 256.762 44.6298 256.122 43.8938C255.514 43.1258 254.554 42.7418 253.242 42.7418C251.706 42.7418 250.538 43.1258 249.738 43.8938C250.634 44.2138 251.322 44.6938 251.802 45.3338C252.314 45.9738 252.57 46.7258 252.57 47.5898C252.57 48.6778 252.202 49.5418 251.466 50.1818C250.73 50.8218 249.834 51.1418 248.778 51.1418C247.658 51.1418 246.794 50.7898 246.186 50.0858C245.578 49.3818 245.274 48.5018 245.274 47.4458C245.274 46.5498 245.482 45.7978 245.898 45.1898C246.346 44.5498 247.018 43.9578 247.914 43.4138C248.778 42.9018 249.834 42.5018 251.082 42.2138C252.362 41.9258 253.754 41.7818 255.258 41.7818C256.826 41.7818 258.186 41.9418 259.338 42.2618C260.49 42.5818 261.45 43.1258 262.218 43.8938C262.922 44.5978 263.386 45.4618 263.61 46.4858C263.866 47.5098 263.994 48.9018 263.994 50.6618V63.7178C263.994 64.4858 264.058 65.0298 264.186 65.3498C264.346 65.6698 264.634 65.8298 265.05 65.8298C265.53 65.8298 266.106 65.5578 266.778 65.0138L267.258 65.8298C265.818 67.0138 264.058 67.6058 261.978 67.6058C260.218 67.6058 258.986 67.2538 258.282 66.5498C257.578 65.8458 257.21 64.9018 257.178 63.7178C255.578 66.3098 253.226 67.6058 250.122 67.6058ZM253.818 64.5338C255.066 64.5338 256.154 63.8778 257.082 62.5658V52.7258C256.698 53.3658 255.882 54.0698 254.634 54.8378C253.386 55.6378 252.442 56.4378 251.802 57.2378C251.162 58.0378 250.842 59.1898 250.842 60.6938C250.842 62.0058 251.114 62.9818 251.658 63.6218C252.202 64.2298 252.922 64.5338 253.818 64.5338ZM278.29 66.5498H280.786C282.834 66.5498 284.562 65.8778 285.97 64.5338C287.378 63.1578 288.21 60.9658 288.466 57.9578H289.474C289.474 62.5018 289.538 65.6698 289.666 67.4618C287.074 67.3338 284.002 67.2698 280.45 67.2698C277.314 67.2698 273.986 67.3498 270.466 67.5098L282.466 43.1738H279.778C275.202 43.1738 272.706 46.0378 272.29 51.7658H271.282C271.282 47.2218 271.218 44.0538 271.09 42.2618C273.682 42.3898 276.754 42.4538 280.306 42.4538C283.442 42.4538 286.77 42.3738 290.29 42.2138L278.29 66.5498Z" fill="#29417D"/>
</svg>
