<svg width="27" height="24" viewBox="0 0 27 24" fill="none" xmlns="http://www.w3.org/2000/svg">
<g id="Icon/Fill/menu">
<path id="Mask" fill-rule="evenodd" clip-rule="evenodd" d="M6.94824 5.99951H23.0512C23.5732 5.99951 24.0002 6.42651 24.0002 6.94851V7.05051C24.0002 7.57251 23.5732 7.99951 23.0512 7.99951H6.94824C6.42624 7.99951 6.00024 7.57251 6.00024 7.05051V6.94851C6.00024 6.42651 6.42624 5.99951 6.94824 5.99951ZM22.7347 10.9994H1.264C0.568 10.9994 0 11.4264 0 11.9484V12.0504C0 12.5724 0.568 12.9994 1.264 12.9994H22.7347C23.4307 12.9994 24 12.5724 24 12.0504V11.9484C24 11.4264 23.4307 10.9994 22.7347 10.9994ZM23.0512 15.9993H6.94824C6.42624 15.9993 6.00024 16.4263 6.00024 16.9483V17.0503C6.00024 17.5723 6.42624 17.9993 6.94824 17.9993H23.0512C23.5732 17.9993 24.0002 17.5723 24.0002 17.0503V16.9483C24.0002 16.4263 23.5732 15.9993 23.0512 15.9993Z" fill="#353535"/>
</g>
</svg>
