<svg width="21" height="21" viewBox="0 0 21 21" fill="none" xmlns="http://www.w3.org/2000/svg">
<path d="M19.3052 19.2279L13.2764 13.1626L19.3052 19.2279ZM15.286 8.1081C15.286 9.03736 15.104 9.95753 14.7506 10.8161C14.3971 11.6746 13.879 12.4547 13.2259 13.1118C12.5727 13.7688 11.7974 14.2901 10.944 14.6457C10.0906 15.0013 9.17603 15.1843 8.25236 15.1843C7.32869 15.1843 6.41407 15.0013 5.56071 14.6457C4.70736 14.2901 3.93198 13.7688 3.27885 13.1118C2.62572 12.4547 2.10762 11.6746 1.75415 10.8161C1.40068 9.95753 1.21875 9.03736 1.21875 8.1081C1.21875 6.23136 1.95979 4.43149 3.27885 3.10444C4.5979 1.77739 6.38693 1.03186 8.25236 1.03186C10.1178 1.03186 11.9068 1.77739 13.2259 3.10444C14.5449 4.43149 15.286 6.23136 15.286 8.1081Z" stroke="#59595F" stroke-width="2" stroke-linecap="round" stroke-linejoin="round"/>
</svg>
