<svg width="31" height="30" viewBox="0 0 31 30" fill="none" xmlns="http://www.w3.org/2000/svg">
<path d="M22.5223 17.7418C21.492 17.7418 20.4951 17.5761 19.5653 17.2779C19.2721 17.1785 18.9454 17.253 18.7192 17.4767L17.4041 19.1087C15.0335 17.9903 12.8136 15.8779 11.6325 13.4506L13.266 12.0754C13.4922 11.8435 13.5592 11.5204 13.467 11.2304C13.1571 10.3109 12.9979 9.32505 12.9979 8.3061C12.9979 7.85875 12.621 7.48596 12.1686 7.48596H9.27027C8.81793 7.48596 8.27344 7.68478 8.27344 8.3061C8.27344 16.0021 14.7487 22.3975 22.5223 22.3975C23.117 22.3975 23.3516 21.8756 23.3516 21.42V18.5619C23.3516 18.1146 22.9746 17.7418 22.5223 17.7418Z" fill="#ffffff"/>
<path d="M29.8907 14.9418C29.8907 22.6144 23.5982 28.8533 15.8125 28.8533C8.02687 28.8533 1.73438 22.6144 1.73438 14.9418C1.73438 7.26911 8.02687 1.03027 15.8125 1.03027C23.5982 1.03027 29.8907 7.26911 29.8907 14.9418Z" stroke="#ffffff" stroke-width="2"/>
</svg>
